solid 
facet normal 0.6767726 0.7296381 -0.09801539
 outer loop
  vertex 0.72831523 -0.21627526 -0.2000484
  vertex 0.73709786 -0.21860223 -0.1567287
  vertex 0.75766766 -0.24437623 -0.2065639
 endloop
endfacet
facet normal 0.678191 0.7293216 -0.0902602
 outer loop
  vertex 0.72831523 -0.21627526 -0.2000484
  vertex 0.75766766 -0.24437623 -0.2065639
  vertex 0.7256888 -0.21978478 -0.24814029
 endloop
endfacet
facet normal 0.67897326 0.7284545 -0.09137473
 outer loop
  vertex 0.7256888 -0.21978478 -0.24814029
  vertex 0.75766766 -0.24437623 -0.2065639
  vertex 0.7545315 -0.24943642 -0.2702083
 endloop
endfacet
facet normal 0.67837626 0.7288457 -0.09268065
 outer loop
  vertex 0.7256888 -0.21978478 -0.24814029
  vertex 0.7545315 -0.24943642 -0.2702083
  vertex 0.7300197 -0.2296782 -0.29424283
 endloop
endfacet
facet normal 0.6780244 0.7289983 -0.094044454
 outer loop
  vertex 0.75838745 -0.23341657 -0.11807437
  vertex 0.77428377 -0.25213337 -0.1485538
  vertex 0.73709786 -0.21860223 -0.1567287
 endloop
endfacet
facet normal 0.67776674 0.72920424 -0.09430524
 outer loop
  vertex 0.75838745 -0.23341657 -0.11807437
  vertex 0.7893318 -0.2590723 -0.09405894
  vertex 0.77428377 -0.25213337 -0.1485538
 endloop
endfacet
facet normal 0.6778271 0.7291206 -0.094517566
 outer loop
  vertex 0.9194734 -0.39919555 -0.2418117
  vertex 0.88210845 -0.36863607 -0.27403253
  vertex 0.8861232 -0.36535352 -0.21991915
 endloop
endfacet
facet normal 0.6775506 0.7294606 -0.093874454
 outer loop
  vertex 0.9194734 -0.39919555 -0.2418117
  vertex 0.91243315 -0.3982095 -0.28496355
  vertex 0.88210845 -0.36863607 -0.27403253
 endloop
endfacet
facet normal 0.6781791 0.72848827 -0.09684017
 outer loop
  vertex 0.73709786 -0.21860223 -0.1567287
  vertex 0.77428377 -0.25213337 -0.1485538
  vertex 0.75766766 -0.24437623 -0.2065639
 endloop
endfacet
facet normal 0.6781274 0.72891676 -0.09393428
 outer loop
  vertex 0.85000634 -0.3141145 -0.08313174
  vertex 0.8335452 -0.30349827 -0.11958689
  vertex 0.82057035 -0.28688908 -0.08436961
 endloop
endfacet
facet normal 0.6781381 0.72890574 -0.09394231
 outer loop
  vertex 0.85000634 -0.3141145 -0.08313174
  vertex 0.8610995 -0.33118528 -0.13550752
  vertex 0.8335452 -0.30349827 -0.11958689
 endloop
endfacet
facet normal 0.67800397 0.7290194 -0.0940282
 outer loop
  vertex 0.82057035 -0.28688908 -0.08436961
  vertex 0.8335452 -0.30349827 -0.11958689
  vertex 0.8071021 -0.28052998 -0.13218112
 endloop
endfacet
facet normal 0.67819035 0.7288362 -0.09410504
 outer loop
  vertex 0.82057035 -0.28688908 -0.08436961
  vertex 0.8071021 -0.28052998 -0.13218112
  vertex 0.7893318 -0.2590723 -0.09405894
 endloop
endfacet
facet normal 0.67816675 0.72888565 -0.09389095
 outer loop
  vertex 0.90766907 -0.37152952 -0.11234468
  vertex 0.8905349 -0.35817426 -0.13242525
  vertex 0.8807187 -0.3432607 -0.087551065
 endloop
endfacet
facet normal 0.67817163 0.72888017 -0.09389878
 outer loop
  vertex 0.90766907 -0.37152952 -0.11234468
  vertex 0.9154289 -0.38418669 -0.1545505
  vertex 0.8905349 -0.35817426 -0.13242525
 endloop
endfacet
facet normal 0.67818344 0.72886646 -0.093919866
 outer loop
  vertex 0.8807187 -0.3432607 -0.087551065
  vertex 0.8610995 -0.33118528 -0.13550752
  vertex 0.85000634 -0.3141145 -0.08313174
 endloop
endfacet
facet normal 0.6781516 0.72889876 -0.09389864
 outer loop
  vertex 0.8807187 -0.3432607 -0.087551065
  vertex 0.8905349 -0.35817426 -0.13242525
  vertex 0.8610995 -0.33118528 -0.13550752
 endloop
endfacet
facet normal 0.67814064 0.72889894 -0.09397717
 outer loop
  vertex 0.88042545 -0.3786859 -0.36454004
  vertex 0.83964276 -0.34027767 -0.36092943
  vertex 0.8609011 -0.35493177 -0.3211879
 endloop
endfacet
facet normal 0.67815775 0.72890276 -0.09382303
 outer loop
  vertex 0.88042545 -0.3786859 -0.36454004
  vertex 0.8549304 -0.35822958 -0.38989633
  vertex 0.83964276 -0.34027767 -0.36092943
 endloop
endfacet
facet normal 0.6781512 0.72889674 -0.09391758
 outer loop
  vertex 0.9200206 -0.39420974 -0.19918436
  vertex 0.8880687 -0.36099523 -0.17212099
  vertex 0.9154289 -0.38418669 -0.1545505
 endloop
endfacet
facet normal 0.67807734 0.72894627 -0.09406549
 outer loop
  vertex 0.9200206 -0.39420974 -0.19918436
  vertex 0.8861232 -0.36535352 -0.21991915
  vertex 0.8880687 -0.36099523 -0.17212099
 endloop
endfacet
facet normal 0.67805 0.7289844 -0.09396755
 outer loop
  vertex 0.9200206 -0.39420974 -0.19918436
  vertex 0.9194734 -0.39919555 -0.2418117
  vertex 0.8861232 -0.36535352 -0.21991915
 endloop
endfacet
facet normal 0.6781551 0.7288915 -0.09393067
 outer loop
  vertex 0.9154289 -0.38418669 -0.1545505
  vertex 0.8880687 -0.36099523 -0.17212099
  vertex 0.8905349 -0.35817426 -0.13242525
 endloop
endfacet
facet normal 0.6780243 0.72899073 -0.0941034
 outer loop
  vertex 0.8563888 -0.33395475 -0.19090265
  vertex 0.8293712 -0.30517864 -0.1626472
  vertex 0.8610995 -0.33118528 -0.13550752
 endloop
endfacet
facet normal 0.6780538 0.7289544 -0.09417277
 outer loop
  vertex 0.8293712 -0.30517864 -0.1626472
  vertex 0.8335452 -0.30349827 -0.11958689
  vertex 0.8610995 -0.33118528 -0.13550752
 endloop
endfacet
facet normal 0.6781533 0.728887 -0.09397802
 outer loop
  vertex 0.80131435 -0.30543232 -0.3672523
  vertex 0.81844854 -0.31512356 -0.31877512
  vertex 0.83964276 -0.34027767 -0.36092943
 endloop
endfacet
facet normal 0.67806697 0.7289735 -0.09393024
 outer loop
  vertex 0.80131435 -0.30543232 -0.3672523
  vertex 0.7809148 -0.2828207 -0.33902925
  vertex 0.81844854 -0.31512356 -0.31877512
 endloop
endfacet
facet normal 0.6789869 0.72844183 -0.09137439
 outer loop
  vertex 0.75766766 -0.24437623 -0.2065639
  vertex 0.78858054 -0.27724934 -0.23892207
  vertex 0.7545315 -0.24943642 -0.2702083
 endloop
endfacet
facet normal 0.6762961 0.7303406 -0.096053146
 outer loop
  vertex 0.75766766 -0.24437623 -0.2065639
  vertex 0.77428377 -0.25213337 -0.1485538
  vertex 0.7964119 -0.27725124 -0.18373695
 endloop
endfacet
facet normal 0.6762669 0.73038197 -0.095943965
 outer loop
  vertex 0.75766766 -0.24437623 -0.2065639
  vertex 0.7964119 -0.27725124 -0.18373695
  vertex 0.78858054 -0.27724934 -0.23892207
 endloop
endfacet
facet normal 0.6778996 0.7288363 -0.096175715
 outer loop
  vertex 0.78858054 -0.27724934 -0.23892207
  vertex 0.7964119 -0.27725124 -0.18373695
  vertex 0.8230903 -0.3060255 -0.21374889
 endloop
endfacet
facet normal 0.67725205 0.7296798 -0.09432369
 outer loop
  vertex 0.78858054 -0.27724934 -0.23892207
  vertex 0.8230903 -0.3060255 -0.21374889
  vertex 0.8182769 -0.3082056 -0.2651748
 endloop
endfacet
facet normal 0.6787461 0.7286593 -0.09143015
 outer loop
  vertex 0.78858054 -0.27724934 -0.23892207
  vertex 0.8182769 -0.3082056 -0.2651748
  vertex 0.7836478 -0.27969265 -0.29501337
 endloop
endfacet
facet normal 0.67901874 0.72840357 -0.09144299
 outer loop
  vertex 0.78858054 -0.27724934 -0.23892207
  vertex 0.7836478 -0.27969265 -0.29501337
  vertex 0.7545315 -0.24943642 -0.2702083
 endloop
endfacet
facet normal 0.67835855 0.72850466 -0.09544979
 outer loop
  vertex 0.7964119 -0.27725124 -0.18373695
  vertex 0.8293712 -0.30517864 -0.1626472
  vertex 0.8230903 -0.3060255 -0.21374889
 endloop
endfacet
facet normal 0.6779951 0.7290026 -0.09422225
 outer loop
  vertex 0.7964119 -0.27725124 -0.18373695
  vertex 0.8071021 -0.28052998 -0.13218112
  vertex 0.8293712 -0.30517864 -0.1626472
 endloop
endfacet
facet normal 0.67787355 0.7291199 -0.09418959
 outer loop
  vertex 0.7964119 -0.27725124 -0.18373695
  vertex 0.77428377 -0.25213337 -0.1485538
  vertex 0.8071021 -0.28052998 -0.13218112
 endloop
endfacet
facet normal 0.6780329 0.72897404 -0.09417152
 outer loop
  vertex 0.8071021 -0.28052998 -0.13218112
  vertex 0.8335452 -0.30349827 -0.11958689
  vertex 0.8293712 -0.30517864 -0.1626472
 endloop
endfacet
facet normal 0.6772912 0.72951204 -0.0953353
 outer loop
  vertex 0.8230903 -0.3060255 -0.21374889
  vertex 0.8293712 -0.30517864 -0.1626472
  vertex 0.8563888 -0.33395475 -0.19090265
 endloop
endfacet
facet normal 0.67776376 0.729201 -0.09435128
 outer loop
  vertex 0.8230903 -0.3060255 -0.21374889
  vertex 0.8517432 -0.33622068 -0.24128908
  vertex 0.8182769 -0.3082056 -0.2651748
 endloop
endfacet
facet normal 0.67726403 0.72954816 -0.09525171
 outer loop
  vertex 0.8230903 -0.3060255 -0.21374889
  vertex 0.8563888 -0.33395475 -0.19090265
  vertex 0.8517432 -0.33622068 -0.24128908
 endloop
endfacet
facet normal 0.67814755 0.7288916 -0.093983606
 outer loop
  vertex 0.83964276 -0.34027767 -0.36092943
  vertex 0.81844854 -0.31512356 -0.31877512
  vertex 0.8609011 -0.35493177 -0.3211879
 endloop
endfacet
facet normal 0.67892295 0.72844255 -0.09184248
 outer loop
  vertex 0.81844854 -0.31512356 -0.31877512
  vertex 0.7836478 -0.27969265 -0.29501337
  vertex 0.8182769 -0.3082056 -0.2651748
 endloop
endfacet
facet normal 0.6780616 0.7289814 -0.09390766
 outer loop
  vertex 0.81844854 -0.31512356 -0.31877512
  vertex 0.7809148 -0.2828207 -0.33902925
  vertex 0.7836478 -0.27969265 -0.29501337
 endloop
endfacet
facet normal 0.6783382 0.7289723 -0.09196032
 outer loop
  vertex 0.81844854 -0.31512356 -0.31877512
  vertex 0.8461087 -0.33648014 -0.28403658
  vertex 0.8609011 -0.35493177 -0.3211879
 endloop
endfacet
facet normal 0.6783091 0.72900486 -0.09191705
 outer loop
  vertex 0.81844854 -0.31512356 -0.31877512
  vertex 0.8182769 -0.3082056 -0.2651748
  vertex 0.8461087 -0.33648014 -0.28403658
 endloop
endfacet
facet normal 0.6775541 0.72947514 -0.09373598
 outer loop
  vertex 0.8182769 -0.3082056 -0.2651748
  vertex 0.8517432 -0.33622068 -0.24128908
  vertex 0.8461087 -0.33648014 -0.28403658
 endloop
endfacet
facet normal 0.6771321 0.72976756 -0.09450526
 outer loop
  vertex 0.8861232 -0.36535352 -0.21991915
  vertex 0.88210845 -0.36863607 -0.27403253
  vertex 0.8517432 -0.33622068 -0.24128908
 endloop
endfacet
facet normal 0.6780141 0.7290048 -0.094068214
 outer loop
  vertex 0.8861232 -0.36535352 -0.21991915
  vertex 0.8563888 -0.33395475 -0.19090265
  vertex 0.8880687 -0.36099523 -0.17212099
 endloop
endfacet
facet normal 0.677347 0.7294706 -0.095255874
 outer loop
  vertex 0.8861232 -0.36535352 -0.21991915
  vertex 0.8517432 -0.33622068 -0.24128908
  vertex 0.8563888 -0.33395475 -0.19090265
 endloop
endfacet
facet normal 0.6780236 0.72899145 -0.094103366
 outer loop
  vertex 0.8880687 -0.36099523 -0.17212099
  vertex 0.8563888 -0.33395475 -0.19090265
  vertex 0.8610995 -0.33118528 -0.13550752
 endloop
endfacet
facet normal 0.6781513 0.7288949 -0.09393067
 outer loop
  vertex 0.8880687 -0.36099523 -0.17212099
  vertex 0.8610995 -0.33118528 -0.13550752
  vertex 0.8905349 -0.35817426 -0.13242525
 endloop
endfacet
facet normal 0.67749983 0.7296657 -0.092638545
 outer loop
  vertex 0.88210845 -0.36863607 -0.27403253
  vertex 0.8609011 -0.35493177 -0.3211879
  vertex 0.8461087 -0.33648014 -0.28403658
 endloop
endfacet
facet normal 0.67759854 0.7294331 -0.09374159
 outer loop
  vertex 0.88210845 -0.36863607 -0.27403253
  vertex 0.8461087 -0.33648014 -0.28403658
  vertex 0.8517432 -0.33622068 -0.24128908
 endloop
endfacet
facet normal 0.67791075 0.7290629 -0.09436301
 outer loop
  vertex 0.7893318 -0.2590723 -0.09405894
  vertex 0.8071021 -0.28052998 -0.13218112
  vertex 0.77428377 -0.25213337 -0.1485538
 endloop
endfacet
facet normal 0.678071 0.7289577 -0.09402313
 outer loop
  vertex 0.78723526 -0.29721355 -0.40506738
  vertex 0.80131435 -0.30543232 -0.3672523
  vertex 0.82249165 -0.32992268 -0.4043998
 endloop
endfacet
facet normal 0.6780883 0.72895825 -0.0938941
 outer loop
  vertex 0.82249165 -0.32992268 -0.4043998
  vertex 0.83964276 -0.34027767 -0.36092943
  vertex 0.8549304 -0.35822958 -0.38989633
 endloop
endfacet
facet normal 0.67815214 0.72889364 -0.09393468
 outer loop
  vertex 0.82249165 -0.32992268 -0.4043998
  vertex 0.80131435 -0.30543232 -0.3672523
  vertex 0.83964276 -0.34027767 -0.36092943
 endloop
endfacet
facet normal 0.6789318 0.7281862 -0.09378944
 outer loop
  vertex 0.7300197 -0.2296782 -0.29424283
  vertex 0.7545315 -0.24943642 -0.2702083
  vertex 0.7418815 -0.24646287 -0.33869356
 endloop
endfacet
facet normal 0.6779559 0.7291233 -0.09356847
 outer loop
  vertex 0.7418815 -0.24646287 -0.33869356
  vertex 0.7545315 -0.24943642 -0.2702083
  vertex 0.7836478 -0.27969265 -0.29501337
 endloop
endfacet
facet normal 0.6781379 0.7289072 -0.093933105
 outer loop
  vertex 0.7418815 -0.24646287 -0.33869356
  vertex 0.7809148 -0.2828207 -0.33902925
  vertex 0.7599089 -0.26804638 -0.37603182
 endloop
endfacet
facet normal 0.67813957 0.72890884 -0.09390735
 outer loop
  vertex 0.7418815 -0.24646287 -0.33869356
  vertex 0.7836478 -0.27969265 -0.29501337
  vertex 0.7809148 -0.2828207 -0.33902925
 endloop
endfacet
facet normal 0.6781038 0.7289247 -0.0940425
 outer loop
  vertex 0.7599089 -0.26804638 -0.37603182
  vertex 0.80131435 -0.30543232 -0.3672523
  vertex 0.78723526 -0.29721355 -0.40506738
 endloop
endfacet
facet normal 0.67809594 0.7289515 -0.093891606
 outer loop
  vertex 0.7599089 -0.26804638 -0.37603182
  vertex 0.7809148 -0.2828207 -0.33902925
  vertex 0.80131435 -0.30543232 -0.3672523
 endloop
endfacet
facet normal 0.67817664 0.7288695 -0.09394479
 outer loop
  vertex 0.8993249 -0.39118665 -0.32509416
  vertex 0.88042545 -0.3786859 -0.36454004
  vertex 0.8609011 -0.35493177 -0.3211879
 endloop
endfacet
facet normal 0.67826384 0.7288828 -0.093209706
 outer loop
  vertex 0.8993249 -0.39118665 -0.32509416
  vertex 0.8609011 -0.35493177 -0.3211879
  vertex 0.88210845 -0.36863607 -0.27403253
 endloop
endfacet
facet normal 0.6776003 0.7294395 -0.09367928
 outer loop
  vertex 0.8993249 -0.39118665 -0.32509416
  vertex 0.88210845 -0.36863607 -0.27403253
  vertex 0.91243315 -0.3982095 -0.28496355
 endloop
endfacet
endsolid 
