solid 
facet normal -0.9854455 0.050598666 0.16228655
 outer loop
  vertex -1.1401083 0.30719727 -0.031223394
  vertex -1.1323841 0.30320328 0.016925715
  vertex -1.1323925 0.3466317 0.0033339493
 endloop
endfacet
facet normal -0.985447 0.050610024 0.16227393
 outer loop
  vertex -1.1401083 0.30719727 -0.031223394
  vertex -1.1323925 0.3466317 0.0033339493
  vertex -1.1375649 0.35298508 -0.030058004
 endloop
endfacet
facet normal -0.98544526 0.050601374 0.16228673
 outer loop
  vertex -1.1401083 0.30719727 -0.031223394
  vertex -1.1400428 0.26469964 -0.017574407
  vertex -1.1323841 0.30320328 0.016925715
 endloop
endfacet
facet normal -0.98544824 0.05059507 0.16227125
 outer loop
  vertex -1.1375649 0.35298508 -0.030058004
  vertex -1.1323925 0.3466317 0.0033339493
  vertex -1.1322274 0.39657182 -0.011234379
 endloop
endfacet
facet normal -0.9854438 0.050602328 0.16229582
 outer loop
  vertex -1.08899 0.23815508 0.30072013
  vertex -1.0944468 0.24641772 0.26501074
  vertex -1.093591 0.19479533 0.28630248
 endloop
endfacet
facet normal -0.98544544 0.050583508 0.16229174
 outer loop
  vertex -1.08899 0.23815508 0.30072013
  vertex -1.0863967 0.28516358 0.30181494
  vertex -1.0944468 0.24641772 0.26501074
 endloop
endfacet
facet normal -0.98544735 0.050596394 0.16227579
 outer loop
  vertex -1.1322274 0.39657182 -0.011234379
  vertex -1.1323925 0.3466317 0.0033339493
  vertex -1.1255549 0.38080186 0.03420248
 endloop
endfacet
facet normal -0.98544693 0.050600883 0.16227727
 outer loop
  vertex -1.1322274 0.39657182 -0.011234379
  vertex -1.1255549 0.38080186 0.03420248
  vertex -1.1248481 0.4311883 0.022783184
 endloop
endfacet
facet normal -0.9854468 0.050595094 0.1622798
 outer loop
  vertex -1.1328965 0.16234939 0.05773344
  vertex -1.1255051 0.19280022 0.09312429
  vertex -1.131644 0.21330804 0.04945173
 endloop
endfacet
facet normal -0.9854472 0.05060005 0.16227563
 outer loop
  vertex -1.1328965 0.16234939 0.05773344
  vertex -1.1277775 0.14444703 0.09440222
  vertex -1.1255051 0.19280022 0.09312429
 endloop
endfacet
facet normal -0.98544806 0.050593976 0.16227272
 outer loop
  vertex -1.1328965 0.16234939 0.05773344
  vertex -1.131644 0.21330804 0.04945173
  vertex -1.1366175 0.19214027 0.025848292
 endloop
endfacet
facet normal -0.9854461 0.05060017 0.16228239
 outer loop
  vertex -1.1277775 0.14444703 0.09440222
  vertex -1.1197261 0.17047662 0.13517752
  vertex -1.1255051 0.19280022 0.09312429
 endloop
endfacet
facet normal -0.9854461 0.050601143 0.1622818
 outer loop
  vertex -1.1277775 0.14444703 0.09440222
  vertex -1.1210014 0.13796967 0.13756934
  vertex -1.1197261 0.17047662 0.13517752
 endloop
endfacet
facet normal -0.98544776 0.050602943 0.16227177
 outer loop
  vertex -1.0863967 0.28516358 0.30181494
  vertex -1.094786 0.298351 0.24675551
  vertex -1.0944468 0.24641772 0.26501074
 endloop
endfacet
facet normal -0.98544645 0.05061658 0.16227482
 outer loop
  vertex -1.0863967 0.28516358 0.30181494
  vertex -1.0854125 0.32819718 0.29436865
  vertex -1.094786 0.298351 0.24675551
 endloop
endfacet
facet normal -0.98544586 0.05060317 0.16228314
 outer loop
  vertex -1.0854125 0.32819718 0.29436865
  vertex -1.0921934 0.35370988 0.24523726
  vertex -1.094786 0.298351 0.24675551
 endloop
endfacet
facet normal -0.98544574 0.050602358 0.16228384
 outer loop
  vertex -1.1248481 0.4311883 0.022783184
  vertex -1.1255549 0.38080186 0.03420248
  vertex -1.1175638 0.41233414 0.07289495
 endloop
endfacet
facet normal -0.98544633 0.050597318 0.16228202
 outer loop
  vertex -1.1248481 0.4311883 0.022783184
  vertex -1.1175638 0.41233414 0.07289495
  vertex -1.1163641 0.45176476 0.067886256
 endloop
endfacet
facet normal -0.98544717 0.050599813 0.16227578
 outer loop
  vertex -1.1077658 0.46099633 0.117221735
  vertex -1.1175638 0.41233414 0.07289495
  vertex -1.1111978 0.39014977 0.11847105
 endloop
endfacet
facet normal -0.985448 0.050599776 0.16227108
 outer loop
  vertex -1.1077658 0.46099633 0.117221735
  vertex -1.1111978 0.39014977 0.11847105
  vertex -1.1025885 0.41580552 0.16275397
 endloop
endfacet
facet normal -0.9854472 0.05060329 0.1622745
 outer loop
  vertex -1.1077658 0.46099633 0.117221735
  vertex -1.1025885 0.41580552 0.16275397
  vertex -1.1001952 0.45918435 0.16376105
 endloop
endfacet
facet normal -0.9854473 0.05059443 0.1622768
 outer loop
  vertex -1.093591 0.19479533 0.28630248
  vertex -1.0944468 0.24641772 0.26501074
  vertex -1.1009331 0.2087323 0.23737136
 endloop
endfacet
facet normal -0.9854481 0.05058629 0.16227461
 outer loop
  vertex -1.093591 0.19479533 0.28630248
  vertex -1.1009331 0.2087323 0.23737136
  vertex -1.0999119 0.16277094 0.25790015
 endloop
endfacet
facet normal -0.98544514 0.050595477 0.16228995
 outer loop
  vertex -1.0892226 0.40844697 0.24621001
  vertex -1.0935613 0.44003075 0.21001807
  vertex -1.0972282 0.3848912 0.20494261
 endloop
endfacet
facet normal -0.98544526 0.05060025 0.16228725
 outer loop
  vertex -1.0892226 0.40844697 0.24621001
  vertex -1.0972282 0.3848912 0.20494261
  vertex -1.0921934 0.35370988 0.24523726
 endloop
endfacet
facet normal -0.98544645 0.05060313 0.16227944
 outer loop
  vertex -1.0935613 0.44003075 0.21001807
  vertex -1.1001952 0.45918435 0.16376105
  vertex -1.1025885 0.41580552 0.16275397
 endloop
endfacet
facet normal -0.9854462 0.050596192 0.16228294
 outer loop
  vertex -1.0935613 0.44003075 0.21001807
  vertex -1.1025885 0.41580552 0.16275397
  vertex -1.0972282 0.3848912 0.20494261
 endloop
endfacet
facet normal -0.98544496 0.05059389 0.16229148
 outer loop
  vertex -1.0999119 0.16277094 0.25790015
  vertex -1.1009331 0.2087323 0.23737136
  vertex -1.1073024 0.17700356 0.20858756
 endloop
endfacet
facet normal -0.98544645 0.050597932 0.16228063
 outer loop
  vertex -1.1387815 0.22847526 0.0013789164
  vertex -1.1317616 0.25942773 0.034356974
  vertex -1.1400428 0.26469964 -0.017574407
 endloop
endfacet
facet normal -0.9854479 0.05059165 0.1622748
 outer loop
  vertex -1.1387815 0.22847526 0.0013789164
  vertex -1.1366175 0.19214027 0.025848292
  vertex -1.131644 0.21330804 0.04945173
 endloop
endfacet
facet normal -0.9854468 0.050601207 0.16227765
 outer loop
  vertex -1.1387815 0.22847526 0.0013789164
  vertex -1.131644 0.21330804 0.04945173
  vertex -1.1317616 0.25942773 0.034356974
 endloop
endfacet
facet normal -0.985446 0.050606288 0.16228141
 outer loop
  vertex -1.1400428 0.26469964 -0.017574407
  vertex -1.1317616 0.25942773 0.034356974
  vertex -1.1323841 0.30320328 0.016925715
 endloop
endfacet
facet normal -0.98544776 0.05060066 0.16227244
 outer loop
  vertex -1.0862762 0.37093896 0.2757987
  vertex -1.0892226 0.40844697 0.24621001
  vertex -1.0921934 0.35370988 0.24523726
 endloop
endfacet
facet normal -0.9854473 0.05059171 0.1622774
 outer loop
  vertex -1.0862762 0.37093896 0.2757987
  vertex -1.0921934 0.35370988 0.24523726
  vertex -1.0854125 0.32819718 0.29436865
 endloop
endfacet
facet normal -0.9854479 0.050594743 0.16227342
 outer loop
  vertex -1.1323841 0.30320328 0.016925715
  vertex -1.1235096 0.30225533 0.07111349
  vertex -1.1266797 0.33851403 0.040557764
 endloop
endfacet
facet normal -0.9854479 0.050594617 0.16227363
 outer loop
  vertex -1.1323841 0.30320328 0.016925715
  vertex -1.1266797 0.33851403 0.040557764
  vertex -1.1323925 0.3466317 0.0033339493
 endloop
endfacet
facet normal -0.98544747 0.05060312 0.16227351
 outer loop
  vertex -1.1323841 0.30320328 0.016925715
  vertex -1.1317616 0.25942773 0.034356974
  vertex -1.1235096 0.30225533 0.07111349
 endloop
endfacet
facet normal -0.9854464 0.050601967 0.16227998
 outer loop
  vertex -1.1317616 0.25942773 0.034356974
  vertex -1.131644 0.21330804 0.04945173
  vertex -1.1242055 0.24456757 0.08487501
 endloop
endfacet
facet normal -0.9854468 0.050598316 0.16227898
 outer loop
  vertex -1.1317616 0.25942773 0.034356974
  vertex -1.1242055 0.24456757 0.08487501
  vertex -1.1235096 0.30225533 0.07111349
 endloop
endfacet
facet normal -0.98544616 0.0506017 0.16228151
 outer loop
  vertex -1.1235096 0.30225533 0.07111349
  vertex -1.1197213 0.35939378 0.07630148
  vertex -1.1266797 0.33851403 0.040557764
 endloop
endfacet
facet normal -0.98544556 0.050601304 0.16228546
 outer loop
  vertex -1.1235096 0.30225533 0.07111349
  vertex -1.113987 0.3330533 0.11933508
  vertex -1.1197213 0.35939378 0.07630148
 endloop
endfacet
facet normal -0.98544556 0.050602593 0.16228463
 outer loop
  vertex -1.1235096 0.30225533 0.07111349
  vertex -1.1159197 0.27844018 0.12462797
  vertex -1.113987 0.3330533 0.11933508
 endloop
endfacet
facet normal -0.985446 0.05059932 0.16228324
 outer loop
  vertex -1.1235096 0.30225533 0.07111349
  vertex -1.1242055 0.24456757 0.08487501
  vertex -1.1159197 0.27844018 0.12462797
 endloop
endfacet
facet normal -0.98544806 0.05059917 0.16227052
 outer loop
  vertex -1.0944468 0.24641772 0.26501074
  vertex -1.1017563 0.2538182 0.21831313
  vertex -1.1009331 0.2087323 0.23737136
 endloop
endfacet
facet normal -0.985447 0.050602857 0.16227645
 outer loop
  vertex -1.1001421 0.33236855 0.20362464
  vertex -1.1055486 0.36045426 0.1620349
  vertex -1.1079582 0.30900353 0.16344634
 endloop
endfacet
facet normal -0.98544645 0.050590545 0.16228351
 outer loop
  vertex -1.1001421 0.33236855 0.20362464
  vertex -1.1079582 0.30900353 0.16344634
  vertex -1.1027893 0.29073495 0.20052901
 endloop
endfacet
facet normal -0.98544735 0.050600473 0.16227491
 outer loop
  vertex -1.1001421 0.33236855 0.20362464
  vertex -1.0972282 0.3848912 0.20494261
  vertex -1.1055486 0.36045426 0.1620349
 endloop
endfacet
facet normal -0.9854453 0.050600056 0.16228712
 outer loop
  vertex -1.1001421 0.33236855 0.20362464
  vertex -1.0921934 0.35370988 0.24523726
  vertex -1.0972282 0.3848912 0.20494261
 endloop
endfacet
facet normal -0.9854465 0.050606787 0.16227762
 outer loop
  vertex -1.1009331 0.2087323 0.23737136
  vertex -1.1082729 0.21792191 0.18993369
  vertex -1.1073024 0.17700356 0.20858756
 endloop
endfacet
facet normal -0.985447 0.050601803 0.16227672
 outer loop
  vertex -1.1009331 0.2087323 0.23737136
  vertex -1.1017563 0.2538182 0.21831313
  vertex -1.1082729 0.21792191 0.18993369
 endloop
endfacet
facet normal -0.98544765 0.05059781 0.16227427
 outer loop
  vertex -1.1323925 0.3466317 0.0033339493
  vertex -1.1266797 0.33851403 0.040557764
  vertex -1.1255549 0.38080186 0.03420248
 endloop
endfacet
facet normal -0.9854462 0.050599743 0.1622819
 outer loop
  vertex -1.131644 0.21330804 0.04945173
  vertex -1.1255051 0.19280022 0.09312429
  vertex -1.1242055 0.24456757 0.08487501
 endloop
endfacet
facet normal -0.98544693 0.05059175 0.16227977
 outer loop
  vertex -1.0972282 0.3848912 0.20494261
  vertex -1.1025885 0.41580552 0.16275397
  vertex -1.1055486 0.36045426 0.1620349
 endloop
endfacet
facet normal -0.98544604 0.050599083 0.16228302
 outer loop
  vertex -1.1255549 0.38080186 0.03420248
  vertex -1.1266797 0.33851403 0.040557764
  vertex -1.1197213 0.35939378 0.07630148
 endloop
endfacet
facet normal -0.98544574 0.050601754 0.16228434
 outer loop
  vertex -1.1255549 0.38080186 0.03420248
  vertex -1.1197213 0.35939378 0.07630148
  vertex -1.1175638 0.41233414 0.07289495
 endloop
endfacet
facet normal -0.985447 0.050601296 0.16227646
 outer loop
  vertex -1.1175638 0.41233414 0.07289495
  vertex -1.1197213 0.35939378 0.07630148
  vertex -1.1111978 0.39014977 0.11847105
 endloop
endfacet
facet normal -0.9854461 0.050599847 0.16228257
 outer loop
  vertex -1.1242055 0.24456757 0.08487501
  vertex -1.1255051 0.19280022 0.09312429
  vertex -1.116629 0.22155541 0.13805762
 endloop
endfacet
facet normal -0.98544604 0.050600033 0.16228263
 outer loop
  vertex -1.1242055 0.24456757 0.08487501
  vertex -1.116629 0.22155541 0.13805762
  vertex -1.1159197 0.27844018 0.12462797
 endloop
endfacet
facet normal -0.9854479 0.05060138 0.16227128
 outer loop
  vertex -1.1079582 0.30900353 0.16344634
  vertex -1.113987 0.3330533 0.11933508
  vertex -1.1159197 0.27844018 0.12462797
 endloop
endfacet
facet normal -0.9854477 0.050602768 0.162272
 outer loop
  vertex -1.1079582 0.30900353 0.16344634
  vertex -1.1055486 0.36045426 0.1620349
  vertex -1.113987 0.3330533 0.11933508
 endloop
endfacet
facet normal -0.9854448 0.050603066 0.16228946
 outer loop
  vertex -1.1079582 0.30900353 0.16344634
  vertex -1.1089965 0.26155633 0.17193595
  vertex -1.1027893 0.29073495 0.20052901
 endloop
endfacet
facet normal -0.98544776 0.050600067 0.16227232
 outer loop
  vertex -1.1079582 0.30900353 0.16344634
  vertex -1.1159197 0.27844018 0.12462797
  vertex -1.1089965 0.26155633 0.17193595
 endloop
endfacet
facet normal -0.9854477 0.05059185 0.16227563
 outer loop
  vertex -1.1055486 0.36045426 0.1620349
  vertex -1.1025885 0.41580552 0.16275397
  vertex -1.1111978 0.39014977 0.11847105
 endloop
endfacet
facet normal -0.9854473 0.0505944 0.1622773
 outer loop
  vertex -1.1055486 0.36045426 0.1620349
  vertex -1.1111978 0.39014977 0.11847105
  vertex -1.113987 0.3330533 0.11933508
 endloop
endfacet
facet normal -0.9854476 0.05060073 0.16227344
 outer loop
  vertex -1.1132629 0.1854989 0.1697425
  vertex -1.116629 0.22155541 0.13805762
  vertex -1.1197261 0.17047662 0.13517752
 endloop
endfacet
facet normal -0.9854468 0.05060624 0.16227642
 outer loop
  vertex -1.1132629 0.1854989 0.1697425
  vertex -1.1073024 0.17700356 0.20858756
  vertex -1.1082729 0.21792191 0.18993369
 endloop
endfacet
facet normal -0.9854465 0.05060505 0.16227825
 outer loop
  vertex -1.1132629 0.1854989 0.1697425
  vertex -1.1082729 0.21792191 0.18993369
  vertex -1.116629 0.22155541 0.13805762
 endloop
endfacet
facet normal -0.98544604 0.050600138 0.16228236
 outer loop
  vertex -1.116629 0.22155541 0.13805762
  vertex -1.1255051 0.19280022 0.09312429
  vertex -1.1197261 0.17047662 0.13517752
 endloop
endfacet
facet normal -0.98544806 0.050597407 0.16227141
 outer loop
  vertex -1.116629 0.22155541 0.13805762
  vertex -1.1089965 0.26155633 0.17193595
  vertex -1.1159197 0.27844018 0.12462797
 endloop
endfacet
facet normal -0.9854474 0.050592136 0.16227747
 outer loop
  vertex -1.116629 0.22155541 0.13805762
  vertex -1.1082729 0.21792191 0.18993369
  vertex -1.1089965 0.26155633 0.17193595
 endloop
endfacet
facet normal -0.985446 0.050595198 0.16228485
 outer loop
  vertex -1.1082729 0.21792191 0.18993369
  vertex -1.1017563 0.2538182 0.21831313
  vertex -1.1089965 0.26155633 0.17193595
 endloop
endfacet
facet normal -0.98544514 0.05060601 0.1622865
 outer loop
  vertex -1.1089965 0.26155633 0.17193595
  vertex -1.1017563 0.2538182 0.21831313
  vertex -1.1027893 0.29073495 0.20052901
 endloop
endfacet
facet normal -0.9854466 0.050594434 0.1622814
 outer loop
  vertex -1.113987 0.3330533 0.11933508
  vertex -1.1111978 0.39014977 0.11847105
  vertex -1.1197213 0.35939378 0.07630148
 endloop
endfacet
facet normal -0.9854478 0.050602693 0.16227107
 outer loop
  vertex -1.094786 0.298351 0.24675551
  vertex -1.1017563 0.2538182 0.21831313
  vertex -1.0944468 0.24641772 0.26501074
 endloop
endfacet
facet normal -0.98544735 0.05060027 0.16227473
 outer loop
  vertex -1.094786 0.298351 0.24675551
  vertex -1.1027893 0.29073495 0.20052901
  vertex -1.1017563 0.2538182 0.21831313
 endloop
endfacet
facet normal -0.9854475 0.050591152 0.16227625
 outer loop
  vertex -1.094786 0.298351 0.24675551
  vertex -1.1001421 0.33236855 0.20362464
  vertex -1.1027893 0.29073495 0.20052901
 endloop
endfacet
facet normal -0.98544544 0.050603207 0.16228549
 outer loop
  vertex -1.094786 0.298351 0.24675551
  vertex -1.0921934 0.35370988 0.24523726
  vertex -1.1001421 0.33236855 0.20362464
 endloop
endfacet
facet normal -0.9854459 0.050583463 0.16228862
 outer loop
  vertex -1.1072638 0.14669389 0.21826926
  vertex -1.0999119 0.16277094 0.25790015
  vertex -1.1073024 0.17700356 0.20858756
 endloop
endfacet
facet normal -0.9854463 0.050582834 0.16228667
 outer loop
  vertex -1.1072638 0.14669389 0.21826926
  vertex -1.1073024 0.17700356 0.20858756
  vertex -1.1139555 0.14038628 0.17960158
 endloop
endfacet
facet normal -0.98544747 0.050593916 0.16227637
 outer loop
  vertex -1.1139555 0.14038628 0.17960158
  vertex -1.1132629 0.1854989 0.1697425
  vertex -1.1197261 0.17047662 0.13517752
 endloop
endfacet
facet normal -0.9854479 0.050593343 0.16227376
 outer loop
  vertex -1.1139555 0.14038628 0.17960158
  vertex -1.1073024 0.17700356 0.20858756
  vertex -1.1132629 0.1854989 0.1697425
 endloop
endfacet
facet normal -0.98544633 0.050601102 0.16228111
 outer loop
  vertex -1.1139555 0.14038628 0.17960158
  vertex -1.1197261 0.17047662 0.13517752
  vertex -1.1210014 0.13796967 0.13756934
 endloop
endfacet
facet normal -0.9854468 0.050596934 0.16227886
 outer loop
  vertex -1.1163641 0.45176476 0.067886256
  vertex -1.1175638 0.41233414 0.07289495
  vertex -1.1077658 0.46099633 0.117221735
 endloop
endfacet
endsolid 
