solid 
facet normal -0.9454229 0.3254885 0.015255004
 outer loop
  vertex 0.27683175 0.3114401 0.16587068
  vertex 0.26298454 0.27251303 0.13826372
  vertex 0.26310244 0.27039206 0.19082452
 endloop
endfacet
facet normal -0.90034056 0.43495867 -0.014069003
 outer loop
  vertex 0.27683175 0.3114401 0.16587068
  vertex 0.2729038 0.304505 0.20283128
  vertex 0.29018223 0.3406321 0.21401407
 endloop
endfacet
facet normal -0.89531845 0.44490767 -0.02149427
 outer loop
  vertex 0.27683175 0.3114401 0.16587068
  vertex 0.29018223 0.3406321 0.21401407
  vertex 0.30255362 0.36324948 0.16685297
 endloop
endfacet
facet normal -0.95555 0.2910693 -0.04693507
 outer loop
  vertex 0.27683175 0.3114401 0.16587068
  vertex 0.26310244 0.27039206 0.19082452
  vertex 0.2729038 0.304505 0.20283128
 endloop
endfacet
facet normal -0.96443295 0.25961858 0.049672205
 outer loop
  vertex 0.26310244 0.27039206 0.19082452
  vertex 0.27164674 0.29197943 0.24389078
  vertex 0.2729038 0.304505 0.20283128
 endloop
endfacet
facet normal -0.9680883 0.25030848 0.012272127
 outer loop
  vertex 0.26310244 0.27039206 0.19082452
  vertex 0.26298454 0.27251303 0.13826372
  vertex 0.25455004 0.23882735 0.15997697
 endloop
endfacet
facet normal -0.97883046 0.18788919 0.081169926
 outer loop
  vertex 0.26310244 0.27039206 0.19082452
  vertex 0.2618472 0.24455893 0.23548509
  vertex 0.27164674 0.29197943 0.24389078
 endloop
endfacet
facet normal -0.9806196 0.16924967 0.09868973
 outer loop
  vertex 0.26310244 0.27039206 0.19082452
  vertex 0.25455004 0.23882735 0.15997697
  vertex 0.2549551 0.21951354 0.1971245
 endloop
endfacet
facet normal -0.9837534 0.16599698 0.06836838
 outer loop
  vertex 0.26310244 0.27039206 0.19082452
  vertex 0.2549551 0.21951354 0.1971245
  vertex 0.2618472 0.24455893 0.23548509
 endloop
endfacet
facet normal 0.060686722 -0.86146164 0.5041835
 outer loop
  vertex 0.49589288 -0.054864123 0.19516948
  vertex 0.45297277 -0.047129855 0.2135506
  vertex 0.4522953 -0.067437395 0.17893413
 endloop
endfacet
facet normal -0.022007616 -0.93883985 0.34364992
 outer loop
  vertex 0.49589288 -0.054864123 0.19516948
  vertex 0.47849536 -0.03732416 0.2419739
  vertex 0.45297277 -0.047129855 0.2135506
 endloop
endfacet
facet normal 0.12763165 -0.9122263 0.38929844
 outer loop
  vertex 0.49589288 -0.054864123 0.19516948
  vertex 0.5287416 -0.031169116 0.2399235
  vertex 0.47849536 -0.03732416 0.2419739
 endloop
endfacet
facet normal 0.33686575 -0.91164696 0.23541732
 outer loop
  vertex 0.49589288 -0.054864123 0.19516948
  vertex 0.5472685 -0.03661649 0.19231799
  vertex 0.5287416 -0.031169116 0.2399235
 endloop
endfacet
facet normal 0.42095098 -0.81171614 0.4048669
 outer loop
  vertex 0.6014852 0.031283244 0.33919528
  vertex 0.5595457 0.011462055 0.34306148
  vertex 0.58833593 0.0106876865 0.31157497
 endloop
endfacet
facet normal 0.538495 -0.655023 0.5300643
 outer loop
  vertex 0.6014852 0.031283244 0.33919528
  vertex 0.60850596 0.06547057 0.37430957
  vertex 0.57689244 0.037337154 0.37166026
 endloop
endfacet
facet normal 0.49908617 -0.7915559 0.3526361
 outer loop
  vertex 0.6014852 0.031283244 0.33919528
  vertex 0.58833593 0.0106876865 0.31157497
  vertex 0.62804776 0.030449755 0.29973033
 endloop
endfacet
facet normal 0.5863993 -0.6989198 0.40944725
 outer loop
  vertex 0.6014852 0.031283244 0.33919528
  vertex 0.62804776 0.030449755 0.29973033
  vertex 0.635834 0.058918845 0.3371754
 endloop
endfacet
facet normal 0.5532034 -0.6494553 0.5217028
 outer loop
  vertex 0.6014852 0.031283244 0.33919528
  vertex 0.635834 0.058918845 0.3371754
  vertex 0.60850596 0.06547057 0.37430957
 endloop
endfacet
facet normal 0.41372547 -0.7856902 0.45991543
 outer loop
  vertex 0.6014852 0.031283244 0.33919528
  vertex 0.57689244 0.037337154 0.37166026
  vertex 0.5595457 0.011462055 0.34306148
 endloop
endfacet
facet normal 0.29622445 -0.7907195 0.5357366
 outer loop
  vertex 0.57689244 0.037337154 0.37166026
  vertex 0.535104 0.03334886 0.3888798
  vertex 0.5595457 0.011462055 0.34306148
 endloop
endfacet
facet normal 0.45195228 -0.57229567 0.68426377
 outer loop
  vertex 0.57689244 0.037337154 0.37166026
  vertex 0.60850596 0.06547057 0.37430957
  vertex 0.5647795 0.07533153 0.41143802
 endloop
endfacet
facet normal 0.34818614 -0.62265223 0.70076436
 outer loop
  vertex 0.57689244 0.037337154 0.37166026
  vertex 0.5647795 0.07533153 0.41143802
  vertex 0.535104 0.03334886 0.3888798
 endloop
endfacet
facet normal 0.18233997 -0.8788845 0.44081086
 outer loop
  vertex 0.5595457 0.011462055 0.34306148
  vertex 0.5022635 0.0077007264 0.35925677
  vertex 0.5186217 -0.007840343 0.32150462
 endloop
endfacet
facet normal 0.24478355 -0.90565073 0.34623355
 outer loop
  vertex 0.5595457 0.011462055 0.34306148
  vertex 0.5186217 -0.007840343 0.32150462
  vertex 0.5513419 -0.012105152 0.28721622
 endloop
endfacet
facet normal 0.33164853 -0.88564384 0.32502982
 outer loop
  vertex 0.5595457 0.011462055 0.34306148
  vertex 0.5513419 -0.012105152 0.28721622
  vertex 0.58833593 0.0106876865 0.31157497
 endloop
endfacet
facet normal 0.19832642 -0.8390584 0.5066039
 outer loop
  vertex 0.5595457 0.011462055 0.34306148
  vertex 0.535104 0.03334886 0.3888798
  vertex 0.5022635 0.0077007264 0.35925677
 endloop
endfacet
facet normal -0.118187584 0.70314693 0.70115346
 outer loop
  vertex 0.45567766 0.46622348 0.2384663
  vertex 0.45507112 0.4269092 0.2777901
  vertex 0.4975845 0.44574815 0.26606372
 endloop
endfacet
facet normal -0.41408417 0.6468994 0.64035565
 outer loop
  vertex 0.45567766 0.46622348 0.2384663
  vertex 0.42282262 0.43042064 0.2533894
  vertex 0.45507112 0.4269092 0.2777901
 endloop
endfacet
facet normal -0.32777512 0.44930205 0.8310783
 outer loop
  vertex 0.45567766 0.46622348 0.2384663
  vertex 0.4975845 0.44574815 0.26606372
  vertex 0.5011995 0.48978692 0.24368098
 endloop
endfacet
facet normal -0.45300832 0.6637719 0.59513897
 outer loop
  vertex 0.45567766 0.46622348 0.2384663
  vertex 0.40127996 0.45297694 0.21183397
  vertex 0.42282262 0.43042064 0.2533894
 endloop
endfacet
facet normal -0.40875918 0.8349003 0.36858827
 outer loop
  vertex 0.42282262 0.43042064 0.2533894
  vertex 0.38704187 0.415343 0.24786188
  vertex 0.41162473 0.40936542 0.2886639
 endloop
endfacet
facet normal -0.38968542 0.70951444 0.587141
 outer loop
  vertex 0.42282262 0.43042064 0.2533894
  vertex 0.40127996 0.45297694 0.21183397
  vertex 0.38704187 0.415343 0.24786188
 endloop
endfacet
facet normal -0.23913749 0.8652815 0.4405691
 outer loop
  vertex 0.42282262 0.43042064 0.2533894
  vertex 0.41162473 0.40936542 0.2886639
  vertex 0.45507112 0.4269092 0.2777901
 endloop
endfacet
facet normal -0.19088043 0.81334186 0.54958135
 outer loop
  vertex 0.45507112 0.4269092 0.2777901
  vertex 0.41162473 0.40936542 0.2886639
  vertex 0.44854885 0.40397525 0.30946544
 endloop
endfacet
facet normal -0.040812768 0.8132811 0.58043784
 outer loop
  vertex 0.45507112 0.4269092 0.2777901
  vertex 0.44854885 0.40397525 0.30946544
  vertex 0.49524266 0.409787 0.3046055
 endloop
endfacet
facet normal -0.13761443 0.7283617 0.67123127
 outer loop
  vertex 0.45507112 0.4269092 0.2777901
  vertex 0.49524266 0.409787 0.3046055
  vertex 0.4975845 0.44574815 0.26606372
 endloop
endfacet
facet normal 0.21598339 0.5279438 0.82135653
 outer loop
  vertex 0.54757535 0.4654377 0.2528706
  vertex 0.5327823 0.4285248 0.2804871
  vertex 0.5753497 0.42357337 0.27247623
 endloop
endfacet
facet normal -0.029027734 0.6062328 0.79475725
 outer loop
  vertex 0.54757535 0.4654377 0.2528706
  vertex 0.4975845 0.44574815 0.26606372
  vertex 0.5327823 0.4285248 0.2804871
 endloop
endfacet
facet normal 0.058737293 0.4484699 0.8918658
 outer loop
  vertex 0.54757535 0.4654377 0.2528706
  vertex 0.5011995 0.48978692 0.24368098
  vertex 0.4975845 0.44574815 0.26606372
 endloop
endfacet
facet normal 0.28421083 0.5547597 0.7819628
 outer loop
  vertex 0.54757535 0.4654377 0.2528706
  vertex 0.5753497 0.42357337 0.27247623
  vertex 0.60318696 0.4569577 0.2386742
 endloop
endfacet
facet normal 0.3896045 0.47440538 0.7893972
 outer loop
  vertex 0.60318696 0.4569577 0.2386742
  vertex 0.5753497 0.42357337 0.27247623
  vertex 0.61444384 0.41801918 0.25651935
 endloop
endfacet
facet normal 0.4755717 0.47639605 0.7395122
 outer loop
  vertex 0.60318696 0.4569577 0.2386742
  vertex 0.61444384 0.41801918 0.25651935
  vertex 0.64610374 0.43553054 0.22487836
 endloop
endfacet
facet normal -0.50903696 -0.8385947 0.19401114
 outer loop
  vertex 0.39812967 -0.02156189 0.23139764
  vertex 0.36456662 0.0040804893 0.2541733
  vertex 0.3757808 -0.0146096125 0.2028103
 endloop
endfacet
facet normal -0.5470747 -0.8042637 0.2320972
 outer loop
  vertex 0.39812967 -0.02156189 0.23139764
  vertex 0.3757808 -0.0146096125 0.2028103
  vertex 0.41410375 -0.042159334 0.19767572
 endloop
endfacet
facet normal -0.35431364 -0.86328065 0.3594558
 outer loop
  vertex 0.39812967 -0.02156189 0.23139764
  vertex 0.41410375 -0.042159334 0.19767572
  vertex 0.43212315 -0.030976534 0.24229433
 endloop
endfacet
facet normal -0.060016967 0.3367833 0.93966746
 outer loop
  vertex 0.45642024 0.18421818 0.45260432
  vertex 0.4759157 0.22675398 0.43860438
  vertex 0.4215961 0.21052814 0.44095042
 endloop
endfacet
facet normal 0.064914964 0.28500578 0.9563251
 outer loop
  vertex 0.45642024 0.18421818 0.45260432
  vertex 0.4949389 0.18105772 0.45093158
  vertex 0.4759157 0.22675398 0.43860438
 endloop
endfacet
facet normal 0.1217627 0.30545172 0.94439036
 outer loop
  vertex 0.4759157 0.22675398 0.43860438
  vertex 0.4949389 0.18105772 0.45093158
  vertex 0.52946204 0.21331674 0.43604663
 endloop
endfacet
facet normal -0.63514006 -0.75109 0.18016921
 outer loop
  vertex 0.32108575 0.038817093 0.24570276
  vertex 0.34269708 0.013065994 0.21453668
  vertex 0.36456662 0.0040804893 0.2541733
 endloop
endfacet
facet normal -0.22814253 0.53735995 0.81190836
 outer loop
  vertex 0.37053418 0.3091876 0.37362865
  vertex 0.41858408 0.3196857 0.3801823
  vertex 0.4052038 0.34431338 0.3601227
 endloop
endfacet
facet normal -0.90201604 -0.37326688 0.21688457
 outer loop
  vertex 0.2888731 0.07847085 0.22713472
  vertex 0.26646674 0.124718316 0.21354105
  vertex 0.27168825 0.08737625 0.17099
 endloop
endfacet
facet normal -0.80371314 -0.5637113 0.1904593
 outer loop
  vertex 0.2888731 0.07847085 0.22713472
  vertex 0.32108575 0.038817093 0.24570276
  vertex 0.30075935 0.08034006 0.28282547
 endloop
endfacet
facet normal -0.7992333 -0.5852917 0.13660078
 outer loop
  vertex 0.2888731 0.07847085 0.22713472
  vertex 0.3108806 0.039847054 0.19040681
  vertex 0.32108575 0.038817093 0.24570276
 endloop
endfacet
facet normal -0.7918891 -0.5923522 0.14842649
 outer loop
  vertex 0.2888731 0.07847085 0.22713472
  vertex 0.27168825 0.08737625 0.17099
  vertex 0.3108806 0.039847054 0.19040681
 endloop
endfacet
facet normal -0.9048128 -0.38474682 0.18243805
 outer loop
  vertex 0.2888731 0.07847085 0.22713472
  vertex 0.27955937 0.11351074 0.25483894
  vertex 0.26646674 0.124718316 0.21354105
 endloop
endfacet
facet normal -0.8939099 -0.39904162 0.20418325
 outer loop
  vertex 0.2888731 0.07847085 0.22713472
  vertex 0.30075935 0.08034006 0.28282547
  vertex 0.27955937 0.11351074 0.25483894
 endloop
endfacet
facet normal -0.9315401 -0.32224914 0.16848934
 outer loop
  vertex 0.26646674 0.124718316 0.21354105
  vertex 0.25135887 0.14497054 0.16874696
  vertex 0.27168825 0.08737625 0.17099
 endloop
endfacet
facet normal -0.95502234 -0.15946294 0.2500079
 outer loop
  vertex 0.26646674 0.124718316 0.21354105
  vertex 0.25550935 0.17571318 0.2042103
  vertex 0.25135887 0.14497054 0.16874696
 endloop
endfacet
facet normal -0.96826094 -0.175488 0.17797339
 outer loop
  vertex 0.26646674 0.124718316 0.21354105
  vertex 0.2687342 0.16045249 0.2611122
  vertex 0.25550935 0.17571318 0.2042103
 endloop
endfacet
facet normal -0.9408533 -0.24784225 0.23101754
 outer loop
  vertex 0.26646674 0.124718316 0.21354105
  vertex 0.27955937 0.11351074 0.25483894
  vertex 0.2687342 0.16045249 0.2611122
 endloop
endfacet
facet normal -0.64461577 -0.061618134 0.76201946
 outer loop
  vertex 0.32910487 0.144509 0.39641762
  vertex 0.36389157 0.15450354 0.42665294
  vertex 0.34049362 0.1874854 0.40952685
 endloop
endfacet
facet normal -0.61339426 -0.18660809 0.7674145
 outer loop
  vertex 0.32910487 0.144509 0.39641762
  vertex 0.3504622 0.11508626 0.40633395
  vertex 0.36389157 0.15450354 0.42665294
 endloop
endfacet
facet normal -0.7146197 -0.30686632 0.6286111
 outer loop
  vertex 0.32910487 0.144509 0.39641762
  vertex 0.32941365 0.10148303 0.37576485
  vertex 0.3504622 0.11508626 0.40633395
 endloop
endfacet
facet normal -0.97553754 -0.07529858 0.20653468
 outer loop
  vertex 0.25550935 0.17571318 0.2042103
  vertex 0.2687342 0.16045249 0.2611122
  vertex 0.25943857 0.2040354 0.23309518
 endloop
endfacet
facet normal -0.9876213 -0.04124144 0.15133865
 outer loop
  vertex 0.25550935 0.17571318 0.2042103
  vertex 0.24747643 0.19600546 0.15731813
  vertex 0.25135887 0.14497054 0.16874696
 endloop
endfacet
facet normal -0.9843464 0.01593956 0.17552236
 outer loop
  vertex 0.25550935 0.17571318 0.2042103
  vertex 0.2549551 0.21951354 0.1971245
  vertex 0.24747643 0.19600546 0.15731813
 endloop
endfacet
facet normal -0.99186105 0.008006554 0.12707284
 outer loop
  vertex 0.25550935 0.17571318 0.2042103
  vertex 0.25943857 0.2040354 0.23309518
  vertex 0.2549551 0.21951354 0.1971245
 endloop
endfacet
facet normal -0.9833319 0.15670878 0.09219903
 outer loop
  vertex 0.2549551 0.21951354 0.1971245
  vertex 0.25455004 0.23882735 0.15997697
  vertex 0.24747643 0.19600546 0.15731813
 endloop
endfacet
facet normal -0.9881911 0.05019783 0.14477026
 outer loop
  vertex 0.2549551 0.21951354 0.1971245
  vertex 0.25943857 0.2040354 0.23309518
  vertex 0.2618472 0.24455893 0.23548509
 endloop
endfacet
facet normal -0.97205627 -0.098721966 0.21298012
 outer loop
  vertex 0.26630503 0.20768988 0.27192116
  vertex 0.2687342 0.16045249 0.2611122
  vertex 0.2763428 0.18425049 0.3068695
 endloop
endfacet
facet normal -0.9843329 0.048509136 0.16951545
 outer loop
  vertex 0.26630503 0.20768988 0.27192116
  vertex 0.2618472 0.24455893 0.23548509
  vertex 0.25943857 0.2040354 0.23309518
 endloop
endfacet
facet normal -0.9770777 0.07772196 0.19818775
 outer loop
  vertex 0.26630503 0.20768988 0.27192116
  vertex 0.272957 0.25865042 0.2847309
  vertex 0.2618472 0.24455893 0.23548509
 endloop
endfacet
facet normal -0.9653322 -0.0261692 0.25970906
 outer loop
  vertex 0.26630503 0.20768988 0.27192116
  vertex 0.2763428 0.18425049 0.3068695
  vertex 0.27517086 0.2240931 0.3065281
 endloop
endfacet
facet normal -0.979028 -0.0919452 0.18179746
 outer loop
  vertex 0.26630503 0.20768988 0.27192116
  vertex 0.25943857 0.2040354 0.23309518
  vertex 0.2687342 0.16045249 0.2611122
 endloop
endfacet
facet normal -0.9739073 0.073121436 0.21484345
 outer loop
  vertex 0.26630503 0.20768988 0.27192116
  vertex 0.27517086 0.2240931 0.3065281
  vertex 0.272957 0.25865042 0.2847309
 endloop
endfacet
facet normal -0.9367402 -0.024561645 0.34916255
 outer loop
  vertex 0.27517086 0.2240931 0.3065281
  vertex 0.2763428 0.18425049 0.3068695
  vertex 0.289748 0.2051188 0.34430122
 endloop
endfacet
facet normal -0.89539796 0.14807147 0.41992548
 outer loop
  vertex 0.27517086 0.2240931 0.3065281
  vertex 0.289748 0.2051188 0.34430122
  vertex 0.29664052 0.26183572 0.3389988
 endloop
endfacet
facet normal -0.90474546 0.18426861 0.384032
 outer loop
  vertex 0.27517086 0.2240931 0.3065281
  vertex 0.29664052 0.26183572 0.3389988
  vertex 0.272957 0.25865042 0.2847309
 endloop
endfacet
facet normal -0.9182974 0.29177606 0.26757535
 outer loop
  vertex 0.272957 0.25865042 0.2847309
  vertex 0.29161668 0.3053538 0.29784203
  vertex 0.27164674 0.29197943 0.24389078
 endloop
endfacet
facet normal -0.9705649 0.17039992 0.17019907
 outer loop
  vertex 0.272957 0.25865042 0.2847309
  vertex 0.27164674 0.29197943 0.24389078
  vertex 0.2618472 0.24455893 0.23548509
 endloop
endfacet
facet normal -0.8924171 0.2513588 0.37471378
 outer loop
  vertex 0.272957 0.25865042 0.2847309
  vertex 0.29664052 0.26183572 0.3389988
  vertex 0.29161668 0.3053538 0.29784203
 endloop
endfacet
facet normal -0.7527244 0.40440166 0.5194855
 outer loop
  vertex 0.29161668 0.3053538 0.29784203
  vertex 0.29664052 0.26183572 0.3389988
  vertex 0.32509255 0.3128783 0.34049034
 endloop
endfacet
facet normal -0.9095689 0.32779086 0.25541657
 outer loop
  vertex 0.29161668 0.3053538 0.29784203
  vertex 0.29220533 0.33526102 0.26155663
  vertex 0.27164674 0.29197943 0.24389078
 endloop
endfacet
facet normal -0.7411167 0.44429645 0.50333554
 outer loop
  vertex 0.29161668 0.3053538 0.29784203
  vertex 0.32509255 0.3128783 0.34049034
  vertex 0.31914243 0.34860867 0.30018997
 endloop
endfacet
facet normal -0.78841937 0.4808988 0.38357693
 outer loop
  vertex 0.29161668 0.3053538 0.29784203
  vertex 0.31914243 0.34860867 0.30018997
  vertex 0.29220533 0.33526102 0.26155663
 endloop
endfacet
facet normal -0.70627606 0.37616575 0.5997279
 outer loop
  vertex 0.29664052 0.26183572 0.3389988
  vertex 0.3320217 0.27909154 0.36984253
  vertex 0.32509255 0.3128783 0.34049034
 endloop
endfacet
facet normal -0.81873035 0.15127884 0.55389106
 outer loop
  vertex 0.29664052 0.26183572 0.3389988
  vertex 0.289748 0.2051188 0.34430122
  vertex 0.318605 0.23258083 0.37945557
 endloop
endfacet
facet normal -0.7066482 0.33288988 0.6243658
 outer loop
  vertex 0.29664052 0.26183572 0.3389988
  vertex 0.318605 0.23258083 0.37945557
  vertex 0.3320217 0.27909154 0.36984253
 endloop
endfacet
facet normal 0.48240826 -0.87506837 0.039212182
 outer loop
  vertex 0.58861756 -0.010234021 0.17884067
  vertex 0.6193037 0.008385539 0.21684268
  vertex 0.574456 -0.015704304 0.23098758
 endloop
endfacet
facet normal 0.5246768 -0.85127616 -0.0065763993
 outer loop
  vertex 0.58861756 -0.010234021 0.17884067
  vertex 0.6352279 0.018591769 0.16616826
  vertex 0.6193037 0.008385539 0.21684268
 endloop
endfacet
facet normal 0.551212 -0.83202773 0.062412318
 outer loop
  vertex 0.58861756 -0.010234021 0.17884067
  vertex 0.574456 -0.015704304 0.23098758
  vertex 0.5472685 -0.03661649 0.19231799
 endloop
endfacet
facet normal 0.6925747 0.12615848 0.7102284
 outer loop
  vertex 0.6443707 0.23019685 0.37473682
  vertex 0.6724988 0.2223939 0.34869388
  vertex 0.6635678 0.2661828 0.34962466
 endloop
endfacet
facet normal 0.69087994 0.101355076 0.71582955
 outer loop
  vertex 0.6443707 0.23019685 0.37473682
  vertex 0.6572244 0.18720904 0.36841777
  vertex 0.6724988 0.2223939 0.34869388
 endloop
endfacet
facet normal 0.54299414 0.17816004 0.8206195
 outer loop
  vertex 0.6443707 0.23019685 0.37473682
  vertex 0.60105217 0.24043928 0.40117648
  vertex 0.61976105 0.1919316 0.39932826
 endloop
endfacet
facet normal 0.6403434 0.07916357 0.76399827
 outer loop
  vertex 0.6443707 0.23019685 0.37473682
  vertex 0.61976105 0.1919316 0.39932826
  vertex 0.6572244 0.18720904 0.36841777
 endloop
endfacet
facet normal 0.6013359 0.21601257 0.7692422
 outer loop
  vertex 0.6443707 0.23019685 0.37473682
  vertex 0.6635678 0.2661828 0.34962466
  vertex 0.6221492 0.27538192 0.37941936
 endloop
endfacet
facet normal 0.5432927 0.18225725 0.81952137
 outer loop
  vertex 0.6443707 0.23019685 0.37473682
  vertex 0.6221492 0.27538192 0.37941936
  vertex 0.60105217 0.24043928 0.40117648
 endloop
endfacet
facet normal 0.41866374 0.28426683 0.862504
 outer loop
  vertex 0.6221492 0.27538192 0.37941936
  vertex 0.58421266 0.2754372 0.39781573
  vertex 0.60105217 0.24043928 0.40117648
 endloop
endfacet
facet normal 0.6002866 0.29494745 0.7434125
 outer loop
  vertex 0.6221492 0.27538192 0.37941936
  vertex 0.6635678 0.2661828 0.34962466
  vertex 0.63928616 0.3129815 0.35066417
 endloop
endfacet
facet normal 0.49960107 0.16025472 0.8513032
 outer loop
  vertex 0.60105217 0.24043928 0.40117648
  vertex 0.57918483 0.19966015 0.4216862
  vertex 0.61976105 0.1919316 0.39932826
 endloop
endfacet
facet normal 0.100897744 -0.6919958 0.7148157
 outer loop
  vertex 0.535104 0.03334886 0.3888798
  vertex 0.5119685 0.06436424 0.42217067
  vertex 0.48355728 0.03231314 0.39515308
 endloop
endfacet
facet normal 0.08837764 -0.79944783 0.5941991
 outer loop
  vertex 0.535104 0.03334886 0.3888798
  vertex 0.48355728 0.03231314 0.39515308
  vertex 0.5022635 0.0077007264 0.35925677
 endloop
endfacet
facet normal 0.27709225 -0.59937906 0.7509758
 outer loop
  vertex 0.535104 0.03334886 0.3888798
  vertex 0.5647795 0.07533153 0.41143802
  vertex 0.5119685 0.06436424 0.42217067
 endloop
endfacet
facet normal -0.055980787 -0.8911254 0.4502908
 outer loop
  vertex 0.45493728 0.013170965 0.3641987
  vertex 0.47450313 -0.007689692 0.32534793
  vertex 0.5022635 0.0077007264 0.35925677
 endloop
endfacet
facet normal -0.4147537 -0.7119397 0.56667566
 outer loop
  vertex 0.4093278 0.0275409 0.36631396
  vertex 0.40743807 0.0634353 0.41002658
  vertex 0.36627105 0.057133388 0.3719788
 endloop
endfacet
facet normal -0.43587822 -0.50613385 0.7442034
 outer loop
  vertex 0.40743807 0.0634353 0.41002658
  vertex 0.38757932 0.11219475 0.43155673
  vertex 0.36643636 0.085617736 0.40109828
 endloop
endfacet
facet normal -0.34078753 -0.49242407 0.8008635
 outer loop
  vertex 0.40743807 0.0634353 0.41002658
  vertex 0.43316483 0.104389906 0.44615558
  vertex 0.38757932 0.11219475 0.43155673
 endloop
endfacet
facet normal -0.47414574 -0.6280488 0.61704177
 outer loop
  vertex 0.40743807 0.0634353 0.41002658
  vertex 0.36643636 0.085617736 0.40109828
  vertex 0.36627105 0.057133388 0.3719788
 endloop
endfacet
facet normal -0.32823482 -0.18416357 0.9264695
 outer loop
  vertex 0.43316483 0.104389906 0.44615558
  vertex 0.4164035 0.15632318 0.45054057
  vertex 0.38757932 0.11219475 0.43155673
 endloop
endfacet
facet normal -0.14972849 -0.13107102 0.9800009
 outer loop
  vertex 0.43316483 0.104389906 0.44615558
  vertex 0.46510336 0.14307477 0.4562092
  vertex 0.4164035 0.15632318 0.45054057
 endloop
endfacet
facet normal -0.0124606965 -0.24186125 0.9702308
 outer loop
  vertex 0.43316483 0.104389906 0.44615558
  vertex 0.48707688 0.10111502 0.4460316
  vertex 0.46510336 0.14307477 0.4562092
 endloop
endfacet
facet normal -0.13267608 0.53117746 0.8368079
 outer loop
  vertex 0.41428137 0.28281474 0.40290454
  vertex 0.45210624 0.3129356 0.38978198
  vertex 0.41858408 0.3196857 0.3801823
 endloop
endfacet
facet normal -0.22722688 0.5299974 0.8169888
 outer loop
  vertex 0.41428137 0.28281474 0.40290454
  vertex 0.41858408 0.3196857 0.3801823
  vertex 0.37053418 0.3091876 0.37362865
 endloop
endfacet
facet normal -0.25487533 0.49759758 0.8291172
 outer loop
  vertex 0.41428137 0.28281474 0.40290454
  vertex 0.37053418 0.3091876 0.37362865
  vertex 0.36511695 0.2658221 0.3979893
 endloop
endfacet
facet normal -0.107062116 0.50704443 0.8552447
 outer loop
  vertex 0.41428137 0.28281474 0.40290454
  vertex 0.4661318 0.27638698 0.41320613
  vertex 0.45210624 0.3129356 0.38978198
 endloop
endfacet
facet normal -0.10828492 0.5018431 0.8581539
 outer loop
  vertex 0.41428137 0.28281474 0.40290454
  vertex 0.4317315 0.2447536 0.42736438
  vertex 0.4661318 0.27638698 0.41320613
 endloop
endfacet
facet normal -0.06871656 0.51949257 0.8517074
 outer loop
  vertex 0.4661318 0.27638698 0.41320613
  vertex 0.50116277 0.308461 0.39646915
  vertex 0.45210624 0.3129356 0.38978198
 endloop
endfacet
facet normal -0.044586573 0.44810942 0.8928662
 outer loop
  vertex 0.4661318 0.27638698 0.41320613
  vertex 0.4317315 0.2447536 0.42736438
  vertex 0.4759157 0.22675398 0.43860438
 endloop
endfacet
facet normal -0.12053028 0.56678253 0.8150031
 outer loop
  vertex 0.45210624 0.3129356 0.38978198
  vertex 0.47511873 0.33023718 0.38115314
  vertex 0.45390162 0.3494575 0.36464885
 endloop
endfacet
facet normal -0.06909149 0.5173156 0.8530012
 outer loop
  vertex 0.45210624 0.3129356 0.38978198
  vertex 0.50116277 0.308461 0.39646915
  vertex 0.47511873 0.33023718 0.38115314
 endloop
endfacet
facet normal -0.11929691 0.5668259 0.8151543
 outer loop
  vertex 0.45210624 0.3129356 0.38978198
  vertex 0.45390162 0.3494575 0.36464885
  vertex 0.41858408 0.3196857 0.3801823
 endloop
endfacet
facet normal -0.060286794 0.66670716 0.74287754
 outer loop
  vertex 0.45390162 0.3494575 0.36464885
  vertex 0.49537688 0.37426072 0.34575465
  vertex 0.46341938 0.38448596 0.3339844
 endloop
endfacet
facet normal -0.07266845 0.6023617 0.7949086
 outer loop
  vertex 0.45390162 0.3494575 0.36464885
  vertex 0.47511873 0.33023718 0.38115314
  vertex 0.49883994 0.3451832 0.37199596
 endloop
endfacet
facet normal -0.1359279 0.5802291 0.8030303
 outer loop
  vertex 0.45390162 0.3494575 0.36464885
  vertex 0.4052038 0.34431338 0.3601227
  vertex 0.41858408 0.3196857 0.3801823
 endloop
endfacet
facet normal -0.058482498 0.6649786 0.7445692
 outer loop
  vertex 0.45390162 0.3494575 0.36464885
  vertex 0.49883994 0.3451832 0.37199596
  vertex 0.49537688 0.37426072 0.34575465
 endloop
endfacet
facet normal -0.64343697 0.64222735 0.41657272
 outer loop
  vertex 0.38704187 0.415343 0.24786188
  vertex 0.40127996 0.45297694 0.21183397
  vertex 0.36685342 0.42372006 0.20376398
 endloop
endfacet
facet normal -0.8962532 -0.38048047 0.2279577
 outer loop
  vertex 0.27955937 0.11351074 0.25483894
  vertex 0.30075935 0.08034006 0.28282547
  vertex 0.28312445 0.12210907 0.28320694
 endloop
endfacet
facet normal 0.57946754 -0.013503008 0.81488353
 outer loop
  vertex 0.6342994 0.1471833 0.38824847
  vertex 0.61976105 0.1919316 0.39932826
  vertex 0.59292233 0.15312849 0.41777042
 endloop
endfacet
facet normal 0.4918519 0.07219088 0.8676809
 outer loop
  vertex 0.59292233 0.15312849 0.41777042
  vertex 0.61976105 0.1919316 0.39932826
  vertex 0.57918483 0.19966015 0.4216862
 endloop
endfacet
facet normal -0.1809219 0.18812284 0.9653378
 outer loop
  vertex 0.4164035 0.15632318 0.45054057
  vertex 0.45642024 0.18421818 0.45260432
  vertex 0.4215961 0.21052814 0.44095042
 endloop
endfacet
facet normal -0.097515956 0.06642534 0.99301475
 outer loop
  vertex 0.4164035 0.15632318 0.45054057
  vertex 0.46510336 0.14307477 0.4562092
  vertex 0.45642024 0.18421818 0.45260432
 endloop
endfacet
facet normal 0.11525348 -0.1767397 0.97748643
 outer loop
  vertex 0.46510336 0.14307477 0.4562092
  vertex 0.48707688 0.10111502 0.4460316
  vertex 0.5086578 0.13760452 0.45008472
 endloop
endfacet
facet normal 0.051192604 0.097885385 0.9938802
 outer loop
  vertex 0.46510336 0.14307477 0.4562092
  vertex 0.4949389 0.18105772 0.45093158
  vertex 0.45642024 0.18421818 0.45260432
 endloop
endfacet
facet normal 0.14236099 0.025661655 0.9894821
 outer loop
  vertex 0.46510336 0.14307477 0.4562092
  vertex 0.5086578 0.13760452 0.45008472
  vertex 0.4949389 0.18105772 0.45093158
 endloop
endfacet
facet normal -0.02712094 0.5531781 0.8326214
 outer loop
  vertex 0.49883994 0.3451832 0.37199596
  vertex 0.47511873 0.33023718 0.38115314
  vertex 0.50116277 0.308461 0.39646915
 endloop
endfacet
facet normal -0.30348033 -0.8192504 0.48654756
 outer loop
  vertex 0.4522953 -0.067437395 0.17893413
  vertex 0.45297277 -0.047129855 0.2135506
  vertex 0.41410375 -0.042159334 0.19767572
 endloop
endfacet
facet normal -0.12032641 -0.9001673 0.41859332
 outer loop
  vertex 0.45297277 -0.047129855 0.2135506
  vertex 0.47849536 -0.03732416 0.2419739
  vertex 0.43212315 -0.030976534 0.24229433
 endloop
endfacet
facet normal -0.2509596 -0.91020066 0.32947546
 outer loop
  vertex 0.45297277 -0.047129855 0.2135506
  vertex 0.43212315 -0.030976534 0.24229433
  vertex 0.41410375 -0.042159334 0.19767572
 endloop
endfacet
facet normal -0.12711294 -0.9439876 0.30451566
 outer loop
  vertex 0.47849536 -0.03732416 0.2419739
  vertex 0.4518573 -0.022044405 0.27822116
  vertex 0.43212315 -0.030976534 0.24229433
 endloop
endfacet
facet normal 0.52398103 -0.84771967 0.082554385
 outer loop
  vertex 0.6193037 0.008385539 0.21684268
  vertex 0.666095 0.03683558 0.21199612
  vertex 0.65013814 0.03134813 0.25692752
 endloop
endfacet
facet normal 0.5188127 -0.8548392 -0.009136756
 outer loop
  vertex 0.6193037 0.008385539 0.21684268
  vertex 0.6352279 0.018591769 0.16616826
  vertex 0.666095 0.03683558 0.21199612
 endloop
endfacet
facet normal -0.47560835 0.5192913 0.71002346
 outer loop
  vertex 0.3320217 0.27909154 0.36984253
  vertex 0.37053418 0.3091876 0.37362865
  vertex 0.32509255 0.3128783 0.34049034
 endloop
endfacet
facet normal -0.44891977 0.47961304 0.75395125
 outer loop
  vertex 0.3320217 0.27909154 0.36984253
  vertex 0.36511695 0.2658221 0.3979893
  vertex 0.37053418 0.3091876 0.37362865
 endloop
endfacet
facet normal -0.0759895 0.3872436 0.9188406
 outer loop
  vertex 0.4317315 0.2447536 0.42736438
  vertex 0.4215961 0.21052814 0.44095042
  vertex 0.4759157 0.22675398 0.43860438
 endloop
endfacet
facet normal 0.35250846 0.7013941 0.6195031
 outer loop
  vertex 0.61444384 0.41801918 0.25651935
  vertex 0.5753497 0.42357337 0.27247623
  vertex 0.6017061 0.38874328 0.29691318
 endloop
endfacet
facet normal 0.45677933 0.50161564 0.73466617
 outer loop
  vertex 0.61444384 0.41801918 0.25651935
  vertex 0.6526953 0.388852 0.25265124
  vertex 0.64610374 0.43553054 0.22487836
 endloop
endfacet
facet normal 0.5216188 0.6041929 0.60238254
 outer loop
  vertex 0.61444384 0.41801918 0.25651935
  vertex 0.6017061 0.38874328 0.29691318
  vertex 0.6526953 0.388852 0.25265124
 endloop
endfacet
facet normal 0.27951977 0.68415225 0.67365
 outer loop
  vertex 0.5753497 0.42357337 0.27247623
  vertex 0.5502134 0.4015873 0.30523494
  vertex 0.6017061 0.38874328 0.29691318
 endloop
endfacet
facet normal 0.2073547 0.731218 0.64986485
 outer loop
  vertex 0.5753497 0.42357337 0.27247623
  vertex 0.5327823 0.4285248 0.2804871
  vertex 0.5502134 0.4015873 0.30523494
 endloop
endfacet
facet normal 0.4810596 0.6779554 0.55584013
 outer loop
  vertex 0.6017061 0.38874328 0.29691318
  vertex 0.65534675 0.3443307 0.30465892
  vertex 0.6526953 0.388852 0.25265124
 endloop
endfacet
facet normal 0.4930986 0.6883408 0.5320158
 outer loop
  vertex 0.6017061 0.38874328 0.29691318
  vertex 0.60366297 0.3536328 0.3405266
  vertex 0.65534675 0.3443307 0.30465892
 endloop
endfacet
facet normal 0.28433114 0.76865953 0.5729907
 outer loop
  vertex 0.6017061 0.38874328 0.29691318
  vertex 0.5502134 0.4015873 0.30523494
  vertex 0.56384164 0.37470704 0.3345318
 endloop
endfacet
facet normal 0.3072621 0.7479561 0.58834666
 outer loop
  vertex 0.6017061 0.38874328 0.29691318
  vertex 0.56384164 0.37470704 0.3345318
  vertex 0.60366297 0.3536328 0.3405266
 endloop
endfacet
facet normal 0.09740248 0.70677364 0.7007023
 outer loop
  vertex 0.5327823 0.4285248 0.2804871
  vertex 0.49524266 0.409787 0.3046055
  vertex 0.5502134 0.4015873 0.30523494
 endloop
endfacet
facet normal 0.07586444 0.7267506 0.68269914
 outer loop
  vertex 0.5327823 0.4285248 0.2804871
  vertex 0.4975845 0.44574815 0.26606372
  vertex 0.49524266 0.409787 0.3046055
 endloop
endfacet
facet normal -0.25135487 -0.897929 0.36130905
 outer loop
  vertex 0.40775093 -0.013238214 0.26942256
  vertex 0.43212315 -0.030976534 0.24229433
  vertex 0.4518573 -0.022044405 0.27822116
 endloop
endfacet
facet normal -0.33902174 -0.8974459 0.28223246
 outer loop
  vertex 0.40775093 -0.013238214 0.26942256
  vertex 0.39812967 -0.02156189 0.23139764
  vertex 0.43212315 -0.030976534 0.24229433
 endloop
endfacet
facet normal -0.4439867 -0.8452511 0.29736578
 outer loop
  vertex 0.40775093 -0.013238214 0.26942256
  vertex 0.36456662 0.0040804893 0.2541733
  vertex 0.39812967 -0.02156189 0.23139764
 endloop
endfacet
facet normal 0.061461065 -0.513908 0.8556407
 outer loop
  vertex 0.46141627 0.06255795 0.42471698
  vertex 0.5119685 0.06436424 0.42217067
  vertex 0.48707688 0.10111502 0.4460316
 endloop
endfacet
facet normal 0.06116024 -0.6744475 0.7357853
 outer loop
  vertex 0.46141627 0.06255795 0.42471698
  vertex 0.48355728 0.03231314 0.39515308
  vertex 0.5119685 0.06436424 0.42217067
 endloop
endfacet
facet normal -0.2258987 -0.5607871 0.79654723
 outer loop
  vertex 0.46141627 0.06255795 0.42471698
  vertex 0.43316483 0.104389906 0.44615558
  vertex 0.40743807 0.0634353 0.41002658
 endloop
endfacet
facet normal -0.20443416 -0.672833 0.7109868
 outer loop
  vertex 0.46141627 0.06255795 0.42471698
  vertex 0.40743807 0.0634353 0.41002658
  vertex 0.442012 0.03692317 0.39487842
 endloop
endfacet
facet normal -0.085245885 -0.7276808 0.68059814
 outer loop
  vertex 0.46141627 0.06255795 0.42471698
  vertex 0.442012 0.03692317 0.39487842
  vertex 0.48355728 0.03231314 0.39515308
 endloop
endfacet
facet normal -0.026524672 -0.47005498 0.8822385
 outer loop
  vertex 0.46141627 0.06255795 0.42471698
  vertex 0.48707688 0.10111502 0.4460316
  vertex 0.43316483 0.104389906 0.44615558
 endloop
endfacet
facet normal -0.23177248 -0.8140296 0.5325761
 outer loop
  vertex 0.442012 0.03692317 0.39487842
  vertex 0.4093278 0.0275409 0.36631396
  vertex 0.45493728 0.013170965 0.3641987
 endloop
endfacet
facet normal -0.093292646 -0.8059148 0.58463484
 outer loop
  vertex 0.442012 0.03692317 0.39487842
  vertex 0.45493728 0.013170965 0.3641987
  vertex 0.48355728 0.03231314 0.39515308
 endloop
endfacet
facet normal -0.30777925 -0.7418014 0.595821
 outer loop
  vertex 0.442012 0.03692317 0.39487842
  vertex 0.40743807 0.0634353 0.41002658
  vertex 0.4093278 0.0275409 0.36631396
 endloop
endfacet
facet normal -0.03877113 -0.83344084 0.551247
 outer loop
  vertex 0.48355728 0.03231314 0.39515308
  vertex 0.45493728 0.013170965 0.3641987
  vertex 0.5022635 0.0077007264 0.35925677
 endloop
endfacet
facet normal -0.61154467 -0.78201306 0.120286025
 outer loop
  vertex 0.3477665 0.0024248958 0.17112924
  vertex 0.3757808 -0.0146096125 0.2028103
  vertex 0.34269708 0.013065994 0.21453668
 endloop
endfacet
facet normal -0.68318915 -0.72368693 0.097620614
 outer loop
  vertex 0.3477665 0.0024248958 0.17112924
  vertex 0.34269708 0.013065994 0.21453668
  vertex 0.3108806 0.039847054 0.19040681
 endloop
endfacet
facet normal -0.688889 -0.7158774 0.11380384
 outer loop
  vertex 0.3108806 0.039847054 0.19040681
  vertex 0.34269708 0.013065994 0.21453668
  vertex 0.32108575 0.038817093 0.24570276
 endloop
endfacet
facet normal 0.031003673 -0.9194672 0.39194238
 outer loop
  vertex 0.5186217 -0.007840343 0.32150462
  vertex 0.5022635 0.0077007264 0.35925677
  vertex 0.47450313 -0.007689692 0.32534793
 endloop
endfacet
facet normal 0.17588681 -0.94224024 0.28503883
 outer loop
  vertex 0.5186217 -0.007840343 0.32150462
  vertex 0.5006583 -0.023450091 0.28098872
  vertex 0.5513419 -0.012105152 0.28721622
 endloop
endfacet
facet normal 0.02719164 -0.93677974 0.3488616
 outer loop
  vertex 0.5186217 -0.007840343 0.32150462
  vertex 0.47450313 -0.007689692 0.32534793
  vertex 0.5006583 -0.023450091 0.28098872
 endloop
endfacet
facet normal -0.044973094 -0.949411 0.31079948
 outer loop
  vertex 0.47450313 -0.007689692 0.32534793
  vertex 0.4518573 -0.022044405 0.27822116
  vertex 0.5006583 -0.023450091 0.28098872
 endloop
endfacet
facet normal 0.12790175 -0.9551682 0.26701123
 outer loop
  vertex 0.5006583 -0.023450091 0.28098872
  vertex 0.47849536 -0.03732416 0.2419739
  vertex 0.5287416 -0.031169116 0.2399235
 endloop
endfacet
facet normal -0.047180414 -0.9323875 0.35836807
 outer loop
  vertex 0.5006583 -0.023450091 0.28098872
  vertex 0.4518573 -0.022044405 0.27822116
  vertex 0.47849536 -0.03732416 0.2419739
 endloop
endfacet
facet normal 0.17395306 -0.93936175 0.29553324
 outer loop
  vertex 0.5006583 -0.023450091 0.28098872
  vertex 0.5287416 -0.031169116 0.2399235
  vertex 0.5513419 -0.012105152 0.28721622
 endloop
endfacet
facet normal 0.26519883 -0.43487403 0.8605546
 outer loop
  vertex 0.5119685 0.06436424 0.42217067
  vertex 0.5647795 0.07533153 0.41143802
  vertex 0.53419304 0.106440365 0.4365845
 endloop
endfacet
facet normal 0.22380775 -0.41956973 0.8796995
 outer loop
  vertex 0.5119685 0.06436424 0.42217067
  vertex 0.53419304 0.106440365 0.4365845
  vertex 0.48707688 0.10111502 0.4460316
 endloop
endfacet
facet normal 0.38964337 -0.3161218 0.8650116
 outer loop
  vertex 0.5713966 0.12159237 0.42536357
  vertex 0.53419304 0.106440365 0.4365845
  vertex 0.5647795 0.07533153 0.41143802
 endloop
endfacet
facet normal 0.41898626 -0.06797955 0.90544426
 outer loop
  vertex 0.5713966 0.12159237 0.42536357
  vertex 0.59292233 0.15312849 0.41777042
  vertex 0.54526925 0.15632708 0.4400616
 endloop
endfacet
facet normal 0.33769903 -0.13985543 0.93080604
 outer loop
  vertex 0.5713966 0.12159237 0.42536357
  vertex 0.54526925 0.15632708 0.4400616
  vertex 0.53419304 0.106440365 0.4365845
 endloop
endfacet
facet normal 0.4674392 -0.315454 0.8258265
 outer loop
  vertex 0.5713966 0.12159237 0.42536357
  vertex 0.5647795 0.07533153 0.41143802
  vertex 0.6070148 0.11038291 0.4009209
 endloop
endfacet
facet normal 0.5248103 -0.15677452 0.8366576
 outer loop
  vertex 0.5713966 0.12159237 0.42536357
  vertex 0.6070148 0.11038291 0.4009209
  vertex 0.59292233 0.15312849 0.41777042
 endloop
endfacet
facet normal 0.32640973 -0.13765179 0.9351517
 outer loop
  vertex 0.54526925 0.15632708 0.4400616
  vertex 0.5086578 0.13760452 0.45008472
  vertex 0.53419304 0.106440365 0.4365845
 endloop
endfacet
facet normal 0.31271577 0.15278405 0.93747854
 outer loop
  vertex 0.54526925 0.15632708 0.4400616
  vertex 0.57918483 0.19966015 0.4216862
  vertex 0.52946204 0.21331674 0.43604663
 endloop
endfacet
facet normal 0.23694445 0.055904612 0.96991336
 outer loop
  vertex 0.54526925 0.15632708 0.4400616
  vertex 0.4949389 0.18105772 0.45093158
  vertex 0.5086578 0.13760452 0.45008472
 endloop
endfacet
facet normal 0.27575964 0.1434483 0.95046264
 outer loop
  vertex 0.54526925 0.15632708 0.4400616
  vertex 0.52946204 0.21331674 0.43604663
  vertex 0.4949389 0.18105772 0.45093158
 endloop
endfacet
facet normal 0.4259261 0.049722575 0.9033907
 outer loop
  vertex 0.54526925 0.15632708 0.4400616
  vertex 0.59292233 0.15312849 0.41777042
  vertex 0.57918483 0.19966015 0.4216862
 endloop
endfacet
facet normal 0.21645185 -0.23331653 0.94800425
 outer loop
  vertex 0.53419304 0.106440365 0.4365845
  vertex 0.5086578 0.13760452 0.45008472
  vertex 0.48707688 0.10111502 0.4460316
 endloop
endfacet
facet normal 0.21038337 0.55440986 0.8052133
 outer loop
  vertex 0.587095 0.3157624 0.3783627
  vertex 0.5680084 0.34856305 0.3607655
  vertex 0.53843915 0.33060533 0.3808556
 endloop
endfacet
facet normal 0.40518013 0.37357125 0.83443016
 outer loop
  vertex 0.587095 0.3157624 0.3783627
  vertex 0.58421266 0.2754372 0.39781573
  vertex 0.6221492 0.27538192 0.37941936
 endloop
endfacet
facet normal 0.41538063 0.54552835 0.7279133
 outer loop
  vertex 0.587095 0.3157624 0.3783627
  vertex 0.63928616 0.3129815 0.35066417
  vertex 0.60366297 0.3536328 0.3405266
 endloop
endfacet
facet normal 0.33393067 0.5890863 0.73584485
 outer loop
  vertex 0.587095 0.3157624 0.3783627
  vertex 0.60366297 0.3536328 0.3405266
  vertex 0.5680084 0.34856305 0.3607655
 endloop
endfacet
facet normal 0.44499877 0.4071743 0.79761225
 outer loop
  vertex 0.587095 0.3157624 0.3783627
  vertex 0.6221492 0.27538192 0.37941936
  vertex 0.63928616 0.3129815 0.35066417
 endloop
endfacet
facet normal 0.13380703 0.63285273 0.76262254
 outer loop
  vertex 0.5680084 0.34856305 0.3607655
  vertex 0.52922773 0.36032754 0.3578072
  vertex 0.53843915 0.33060533 0.3808556
 endloop
endfacet
facet normal 0.1637662 0.7116374 0.6831932
 outer loop
  vertex 0.5680084 0.34856305 0.3607655
  vertex 0.56384164 0.37470704 0.3345318
  vertex 0.52922773 0.36032754 0.3578072
 endloop
endfacet
facet normal 0.27300248 0.7027433 0.6569792
 outer loop
  vertex 0.5680084 0.34856305 0.3607655
  vertex 0.60366297 0.3536328 0.3405266
  vertex 0.56384164 0.37470704 0.3345318
 endloop
endfacet
facet normal 0.054418504 0.62236834 0.7808305
 outer loop
  vertex 0.53843915 0.33060533 0.3808556
  vertex 0.52922773 0.36032754 0.3578072
  vertex 0.49883994 0.3451832 0.37199596
 endloop
endfacet
facet normal 0.018394541 0.5552822 0.8314586
 outer loop
  vertex 0.53843915 0.33060533 0.3808556
  vertex 0.49883994 0.3451832 0.37199596
  vertex 0.50116277 0.308461 0.39646915
 endloop
endfacet
facet normal 0.8286987 -0.1041914 0.54991156
 outer loop
  vertex 0.6700822 0.137885 0.34988788
  vertex 0.69692695 0.13436787 0.30876735
  vertex 0.6931503 0.18774311 0.32457164
 endloop
endfacet
facet normal 0.7934754 -0.27735803 0.54172814
 outer loop
  vertex 0.6700822 0.137885 0.34988788
  vertex 0.6728214 0.095562845 0.32420734
  vertex 0.69692695 0.13436787 0.30876735
 endloop
endfacet
facet normal 0.7478717 -0.30832472 0.5878977
 outer loop
  vertex 0.6700822 0.137885 0.34988788
  vertex 0.64179313 0.1017331 0.36691478
  vertex 0.6728214 0.095562845 0.32420734
 endloop
endfacet
facet normal 0.68845344 -0.21205059 0.69358957
 outer loop
  vertex 0.6700822 0.137885 0.34988788
  vertex 0.6342994 0.1471833 0.38824847
  vertex 0.64179313 0.1017331 0.36691478
 endloop
endfacet
facet normal 0.72073245 -0.0711675 0.6895505
 outer loop
  vertex 0.6700822 0.137885 0.34988788
  vertex 0.6572244 0.18720904 0.36841777
  vertex 0.6342994 0.1471833 0.38824847
 endloop
endfacet
facet normal 0.773217 -0.036279764 0.63310295
 outer loop
  vertex 0.6700822 0.137885 0.34988788
  vertex 0.6931503 0.18774311 0.32457164
  vertex 0.6572244 0.18720904 0.36841777
 endloop
endfacet
facet normal 0.7545721 -0.65177757 0.076202996
 outer loop
  vertex 0.7003597 0.062767915 0.20018582
  vertex 0.6886604 0.04389088 0.1545754
  vertex 0.7236463 0.085806794 0.16665463
 endloop
endfacet
facet normal 0.84774673 -0.49069625 0.20135249
 outer loop
  vertex 0.7003597 0.062767915 0.20018582
  vertex 0.71882164 0.09983534 0.21278958
  vertex 0.69012547 0.06591503 0.25094417
 endloop
endfacet
facet normal 0.8345655 -0.49669763 0.2383101
 outer loop
  vertex 0.7003597 0.062767915 0.20018582
  vertex 0.7236463 0.085806794 0.16665463
  vertex 0.71882164 0.09983534 0.21278958
 endloop
endfacet
facet normal 0.6294537 -0.76166946 0.15377803
 outer loop
  vertex 0.7003597 0.062767915 0.20018582
  vertex 0.666095 0.03683558 0.21199612
  vertex 0.6886604 0.04389088 0.1545754
 endloop
endfacet
facet normal 0.631724 -0.75536543 0.17420655
 outer loop
  vertex 0.7003597 0.062767915 0.20018582
  vertex 0.69012547 0.06591503 0.25094417
  vertex 0.666095 0.03683558 0.21199612
 endloop
endfacet
facet normal 0.43806165 -0.89680713 0.06195985
 outer loop
  vertex 0.6886604 0.04389088 0.1545754
  vertex 0.666095 0.03683558 0.21199612
  vertex 0.6352279 0.018591769 0.16616826
 endloop
endfacet
facet normal 0.9444829 -0.27357477 0.1819585
 outer loop
  vertex 0.7236463 0.085806794 0.16665463
  vertex 0.73493755 0.13074966 0.17561726
  vertex 0.71882164 0.09983534 0.21278958
 endloop
endfacet
facet normal 0.9614715 -0.18983176 0.19883762
 outer loop
  vertex 0.7113954 0.11633772 0.26445392
  vertex 0.71882164 0.09983534 0.21278958
  vertex 0.7259439 0.14897054 0.22525983
 endloop
endfacet
facet normal 0.96112263 -0.1502489 0.23166461
 outer loop
  vertex 0.7113954 0.11633772 0.26445392
  vertex 0.7259439 0.14897054 0.22525983
  vertex 0.7170001 0.1660127 0.27341846
 endloop
endfacet
facet normal 0.861881 -0.43389556 0.2624801
 outer loop
  vertex 0.7113954 0.11633772 0.26445392
  vertex 0.69012547 0.06591503 0.25094417
  vertex 0.71882164 0.09983534 0.21278958
 endloop
endfacet
facet normal 0.8555412 -0.43578938 0.27952978
 outer loop
  vertex 0.7113954 0.11633772 0.26445392
  vertex 0.6905029 0.092343256 0.29099086
  vertex 0.69012547 0.06591503 0.25094417
 endloop
endfacet
facet normal 0.9676894 0.013501143 0.25178343
 outer loop
  vertex 0.7170001 0.1660127 0.27341846
  vertex 0.72677386 0.20061392 0.2339993
  vertex 0.7139671 0.21739858 0.28232005
 endloop
endfacet
facet normal 0.9026497 -0.021185106 0.4298543
 outer loop
  vertex 0.7170001 0.1660127 0.27341846
  vertex 0.7139671 0.21739858 0.28232005
  vertex 0.6931503 0.18774311 0.32457164
 endloop
endfacet
facet normal 0.9786987 -0.049448054 0.1992578
 outer loop
  vertex 0.7170001 0.1660127 0.27341846
  vertex 0.7259439 0.14897054 0.22525983
  vertex 0.72677386 0.20061392 0.2339993
 endloop
endfacet
facet normal 0.8923711 0.17941257 0.4141075
 outer loop
  vertex 0.7219696 0.3275327 0.21655469
  vertex 0.71160173 0.29699606 0.25212672
  vertex 0.73409677 0.28164953 0.21030049
 endloop
endfacet
facet normal -0.55988187 -0.22090587 0.7985818
 outer loop
  vertex 0.36389157 0.15450354 0.42665294
  vertex 0.3504622 0.11508626 0.40633395
  vertex 0.38757932 0.11219475 0.43155673
 endloop
endfacet
facet normal -0.40737534 -0.123196535 0.90491325
 outer loop
  vertex 0.36389157 0.15450354 0.42665294
  vertex 0.38757932 0.11219475 0.43155673
  vertex 0.4164035 0.15632318 0.45054057
 endloop
endfacet
facet normal -0.5376657 0.31661227 0.7814551
 outer loop
  vertex 0.318605 0.23258083 0.37945557
  vertex 0.36511695 0.2658221 0.3979893
  vertex 0.3320217 0.27909154 0.36984253
 endloop
endfacet
facet normal 0.64977324 -0.23255256 0.7236809
 outer loop
  vertex 0.64179313 0.1017331 0.36691478
  vertex 0.6342994 0.1471833 0.38824847
  vertex 0.6070148 0.11038291 0.4009209
 endloop
endfacet
facet normal 0.674053 -0.48239675 0.55941564
 outer loop
  vertex 0.64179313 0.1017331 0.36691478
  vertex 0.635834 0.058918845 0.3371754
  vertex 0.6728214 0.095562845 0.32420734
 endloop
endfacet
facet normal 0.58914596 -0.39732763 0.70358914
 outer loop
  vertex 0.64179313 0.1017331 0.36691478
  vertex 0.6070148 0.11038291 0.4009209
  vertex 0.60850596 0.06547057 0.37430957
 endloop
endfacet
facet normal 0.65930027 -0.48867896 0.5714159
 outer loop
  vertex 0.64179313 0.1017331 0.36691478
  vertex 0.60850596 0.06547057 0.37430957
  vertex 0.635834 0.058918845 0.3371754
 endloop
endfacet
facet normal 0.7004687 -0.5432273 0.46286875
 outer loop
  vertex 0.6728214 0.095562845 0.32420734
  vertex 0.635834 0.058918845 0.3371754
  vertex 0.66594386 0.06005755 0.2929459
 endloop
endfacet
facet normal 0.72788066 -0.52712655 0.43855155
 outer loop
  vertex 0.6728214 0.095562845 0.32420734
  vertex 0.66594386 0.06005755 0.2929459
  vertex 0.6905029 0.092343256 0.29099086
 endloop
endfacet
facet normal 0.8217502 -0.32392985 0.468824
 outer loop
  vertex 0.6728214 0.095562845 0.32420734
  vertex 0.6905029 0.092343256 0.29099086
  vertex 0.69692695 0.13436787 0.30876735
 endloop
endfacet
facet normal 0.012016541 0.670713 0.74161965
 outer loop
  vertex 0.52922773 0.36032754 0.3578072
  vertex 0.49537688 0.37426072 0.34575465
  vertex 0.49883994 0.3451832 0.37199596
 endloop
endfacet
facet normal -0.77237535 0.6232388 0.12251485
 outer loop
  vertex 0.30255362 0.36324948 0.16685297
  vertex 0.31867522 0.37487477 0.2093506
  vertex 0.33209795 0.3961951 0.18551446
 endloop
endfacet
facet normal 0.637568 0.016432459 0.7702188
 outer loop
  vertex 0.6572244 0.18720904 0.36841777
  vertex 0.61976105 0.1919316 0.39932826
  vertex 0.6342994 0.1471833 0.38824847
 endloop
endfacet
facet normal 0.9547876 -0.029405013 0.29583097
 outer loop
  vertex 0.73409677 0.28164953 0.21030049
  vertex 0.723578 0.25165457 0.2412682
  vertex 0.7367034 0.23079391 0.1968327
 endloop
endfacet
facet normal 0.89240474 0.1324084 0.43137196
 outer loop
  vertex 0.73409677 0.28164953 0.21030049
  vertex 0.71160173 0.29699606 0.25212672
  vertex 0.723578 0.25165457 0.2412682
 endloop
endfacet
facet normal 0.93455744 0.17229389 0.31131536
 outer loop
  vertex 0.723578 0.25165457 0.2412682
  vertex 0.71160173 0.29699606 0.25212672
  vertex 0.7067621 0.2667684 0.28338435
 endloop
endfacet
facet normal 0.9684604 0.025338594 0.24787593
 outer loop
  vertex 0.723578 0.25165457 0.2412682
  vertex 0.7139671 0.21739858 0.28232005
  vertex 0.72677386 0.20061392 0.2339993
 endloop
endfacet
facet normal 0.93601924 0.12954772 0.32723895
 outer loop
  vertex 0.723578 0.25165457 0.2412682
  vertex 0.7067621 0.2667684 0.28338435
  vertex 0.7139671 0.21739858 0.28232005
 endloop
endfacet
facet normal 0.96147853 0.021171948 0.27406344
 outer loop
  vertex 0.723578 0.25165457 0.2412682
  vertex 0.72677386 0.20061392 0.2339993
  vertex 0.7367034 0.23079391 0.1968327
 endloop
endfacet
facet normal 0.97571206 -0.06244463 0.20996787
 outer loop
  vertex 0.7367034 0.23079391 0.1968327
  vertex 0.72677386 0.20061392 0.2339993
  vertex 0.73549974 0.18237586 0.18802647
 endloop
endfacet
facet normal 0.65603286 0.3252568 0.6810499
 outer loop
  vertex 0.6635678 0.2661828 0.34962466
  vertex 0.6711308 0.30149356 0.32547572
  vertex 0.63928616 0.3129815 0.35066417
 endloop
endfacet
facet normal 0.7417637 0.2630398 0.61692506
 outer loop
  vertex 0.6635678 0.2661828 0.34962466
  vertex 0.6878016 0.27991384 0.31463245
  vertex 0.6711308 0.30149356 0.32547572
 endloop
endfacet
facet normal 0.7731174 0.14455527 0.6175704
 outer loop
  vertex 0.6635678 0.2661828 0.34962466
  vertex 0.6724988 0.2223939 0.34869388
  vertex 0.69376194 0.23746197 0.31854823
 endloop
endfacet
facet normal 0.7792863 0.1651739 0.6045084
 outer loop
  vertex 0.6635678 0.2661828 0.34962466
  vertex 0.69376194 0.23746197 0.31854823
  vertex 0.6878016 0.27991384 0.31463245
 endloop
endfacet
facet normal 0.8724643 0.16492727 0.46000552
 outer loop
  vertex 0.7067621 0.2667684 0.28338435
  vertex 0.6878016 0.27991384 0.31463245
  vertex 0.69376194 0.23746197 0.31854823
 endloop
endfacet
facet normal 0.8668459 0.29518864 0.40179813
 outer loop
  vertex 0.7067621 0.2667684 0.28338435
  vertex 0.68871164 0.31043905 0.29024318
  vertex 0.6878016 0.27991384 0.31463245
 endloop
endfacet
facet normal 0.89395195 0.121161364 0.43147403
 outer loop
  vertex 0.7067621 0.2667684 0.28338435
  vertex 0.69376194 0.23746197 0.31854823
  vertex 0.7139671 0.21739858 0.28232005
 endloop
endfacet
facet normal 0.8619977 0.29111353 0.4149853
 outer loop
  vertex 0.7067621 0.2667684 0.28338435
  vertex 0.71160173 0.29699606 0.25212672
  vertex 0.68871164 0.31043905 0.29024318
 endloop
endfacet
facet normal 0.88299996 0.04573064 0.46713984
 outer loop
  vertex 0.7139671 0.21739858 0.28232005
  vertex 0.69376194 0.23746197 0.31854823
  vertex 0.6931503 0.18774311 0.32457164
 endloop
endfacet
facet normal 0.9773466 -0.050488602 0.205535
 outer loop
  vertex 0.72677386 0.20061392 0.2339993
  vertex 0.7259439 0.14897054 0.22525983
  vertex 0.73549974 0.18237586 0.18802647
 endloop
endfacet
facet normal 0.97832257 -0.058409367 0.19867904
 outer loop
  vertex 0.7259439 0.14897054 0.22525983
  vertex 0.73493755 0.13074966 0.17561726
  vertex 0.73549974 0.18237586 0.18802647
 endloop
endfacet
facet normal 0.94867796 -0.19973932 0.24518238
 outer loop
  vertex 0.7259439 0.14897054 0.22525983
  vertex 0.71882164 0.09983534 0.21278958
  vertex 0.73493755 0.13074966 0.17561726
 endloop
endfacet
facet normal 0.7732436 0.019618591 0.63380563
 outer loop
  vertex 0.6931503 0.18774311 0.32457164
  vertex 0.6724988 0.2223939 0.34869388
  vertex 0.6572244 0.18720904 0.36841777
 endloop
endfacet
facet normal 0.80064183 0.062341966 0.595891
 outer loop
  vertex 0.6931503 0.18774311 0.32457164
  vertex 0.69376194 0.23746197 0.31854823
  vertex 0.6724988 0.2223939 0.34869388
 endloop
endfacet
facet normal 0.7920069 0.36650366 0.48826241
 outer loop
  vertex 0.6711308 0.30149356 0.32547572
  vertex 0.6878016 0.27991384 0.31463245
  vertex 0.68871164 0.31043905 0.29024318
 endloop
endfacet
facet normal 0.6082492 -0.6876947 0.39636955
 outer loop
  vertex 0.635834 0.058918845 0.3371754
  vertex 0.62804776 0.030449755 0.29973033
  vertex 0.66594386 0.06005755 0.2929459
 endloop
endfacet
facet normal 0.6196693 -0.723334 0.30462724
 outer loop
  vertex 0.66594386 0.06005755 0.2929459
  vertex 0.62804776 0.030449755 0.29973033
  vertex 0.65013814 0.03134813 0.25692752
 endloop
endfacet
facet normal 0.6517904 -0.70608735 0.27678493
 outer loop
  vertex 0.66594386 0.06005755 0.2929459
  vertex 0.65013814 0.03134813 0.25692752
  vertex 0.69012547 0.06591503 0.25094417
 endloop
endfacet
facet normal 0.7537442 -0.55173826 0.35700786
 outer loop
  vertex 0.66594386 0.06005755 0.2929459
  vertex 0.69012547 0.06591503 0.25094417
  vertex 0.6905029 0.092343256 0.29099086
 endloop
endfacet
facet normal 0.53101575 -0.41882774 0.73661774
 outer loop
  vertex 0.6070148 0.11038291 0.4009209
  vertex 0.5647795 0.07533153 0.41143802
  vertex 0.60850596 0.06547057 0.37430957
 endloop
endfacet
facet normal 0.5623706 -0.13609445 0.81560874
 outer loop
  vertex 0.6070148 0.11038291 0.4009209
  vertex 0.6342994 0.1471833 0.38824847
  vertex 0.59292233 0.15312849 0.41777042
 endloop
endfacet
facet normal 0.86259335 -0.3031726 0.4049928
 outer loop
  vertex 0.69692695 0.13436787 0.30876735
  vertex 0.6905029 0.092343256 0.29099086
  vertex 0.7113954 0.11633772 0.26445392
 endloop
endfacet
facet normal 0.8926891 -0.06871889 0.4454031
 outer loop
  vertex 0.69692695 0.13436787 0.30876735
  vertex 0.7170001 0.1660127 0.27341846
  vertex 0.6931503 0.18774311 0.32457164
 endloop
endfacet
facet normal 0.91443473 -0.16950011 0.36753076
 outer loop
  vertex 0.69692695 0.13436787 0.30876735
  vertex 0.7113954 0.11633772 0.26445392
  vertex 0.7170001 0.1660127 0.27341846
 endloop
endfacet
facet normal -0.6012889 -0.78404677 0.1540206
 outer loop
  vertex 0.3757808 -0.0146096125 0.2028103
  vertex 0.36456662 0.0040804893 0.2541733
  vertex 0.34269708 0.013065994 0.21453668
 endloop
endfacet
facet normal -0.5310136 -0.7882649 0.31090662
 outer loop
  vertex 0.38069063 0.0069777593 0.29413036
  vertex 0.37096733 0.029425338 0.33443645
  vertex 0.3437366 0.031502426 0.29319385
 endloop
endfacet
facet normal -0.35782036 -0.8755871 0.32451773
 outer loop
  vertex 0.38069063 0.0069777593 0.29413036
  vertex 0.40775093 -0.013238214 0.26942256
  vertex 0.42034027 -0.00016714633 0.31857112
 endloop
endfacet
facet normal -0.3841382 -0.8429022 0.37676737
 outer loop
  vertex 0.38069063 0.0069777593 0.29413036
  vertex 0.42034027 -0.00016714633 0.31857112
  vertex 0.37096733 0.029425338 0.33443645
 endloop
endfacet
facet normal -0.4326904 -0.8696523 0.23766327
 outer loop
  vertex 0.38069063 0.0069777593 0.29413036
  vertex 0.36456662 0.0040804893 0.2541733
  vertex 0.40775093 -0.013238214 0.26942256
 endloop
endfacet
facet normal -0.5365561 -0.7980113 0.27438194
 outer loop
  vertex 0.38069063 0.0069777593 0.29413036
  vertex 0.3437366 0.031502426 0.29319385
  vertex 0.36456662 0.0040804893 0.2541733
 endloop
endfacet
facet normal -0.6100147 -0.70206314 0.36740902
 outer loop
  vertex 0.37096733 0.029425338 0.33443645
  vertex 0.33110037 0.06392352 0.33416557
  vertex 0.3437366 0.031502426 0.29319385
 endloop
endfacet
facet normal -0.37331372 -0.83716184 0.39974606
 outer loop
  vertex 0.37096733 0.029425338 0.33443645
  vertex 0.42034027 -0.00016714633 0.31857112
  vertex 0.4093278 0.0275409 0.36631396
 endloop
endfacet
facet normal -0.59276545 -0.6816465 0.42893708
 outer loop
  vertex 0.37096733 0.029425338 0.33443645
  vertex 0.36627105 0.057133388 0.3719788
  vertex 0.33110037 0.06392352 0.33416557
 endloop
endfacet
facet normal -0.44730777 -0.74543375 0.4942109
 outer loop
  vertex 0.37096733 0.029425338 0.33443645
  vertex 0.4093278 0.0275409 0.36631396
  vertex 0.36627105 0.057133388 0.3719788
 endloop
endfacet
facet normal -0.75258464 -0.60920864 0.24996243
 outer loop
  vertex 0.3437366 0.031502426 0.29319385
  vertex 0.33110037 0.06392352 0.33416557
  vertex 0.30075935 0.08034006 0.28282547
 endloop
endfacet
facet normal -0.7510708 -0.60466474 0.2650911
 outer loop
  vertex 0.3437366 0.031502426 0.29319385
  vertex 0.30075935 0.08034006 0.28282547
  vertex 0.32108575 0.038817093 0.24570276
 endloop
endfacet
facet normal -0.6351358 -0.7492921 0.18752015
 outer loop
  vertex 0.3437366 0.031502426 0.29319385
  vertex 0.32108575 0.038817093 0.24570276
  vertex 0.36456662 0.0040804893 0.2541733
 endloop
endfacet
facet normal 0.5291768 -0.8089317 0.2561278
 outer loop
  vertex 0.60638475 0.006659381 0.26935008
  vertex 0.65013814 0.03134813 0.25692752
  vertex 0.62804776 0.030449755 0.29973033
 endloop
endfacet
facet normal 0.50992185 -0.85469294 0.0973638
 outer loop
  vertex 0.60638475 0.006659381 0.26935008
  vertex 0.6193037 0.008385539 0.21684268
  vertex 0.65013814 0.03134813 0.25692752
 endloop
endfacet
facet normal 0.49425474 -0.8197077 0.28946787
 outer loop
  vertex 0.60638475 0.006659381 0.26935008
  vertex 0.62804776 0.030449755 0.29973033
  vertex 0.58833593 0.0106876865 0.31157497
 endloop
endfacet
facet normal 0.49376923 -0.86459875 0.093063965
 outer loop
  vertex 0.60638475 0.006659381 0.26935008
  vertex 0.574456 -0.015704304 0.23098758
  vertex 0.6193037 0.008385539 0.21684268
 endloop
endfacet
facet normal 0.3839274 -0.88917404 0.2489362
 outer loop
  vertex 0.60638475 0.006659381 0.26935008
  vertex 0.58833593 0.0106876865 0.31157497
  vertex 0.5513419 -0.012105152 0.28721622
 endloop
endfacet
facet normal 0.37637925 -0.90177995 0.21244167
 outer loop
  vertex 0.60638475 0.006659381 0.26935008
  vertex 0.5513419 -0.012105152 0.28721622
  vertex 0.574456 -0.015704304 0.23098758
 endloop
endfacet
facet normal 0.34905437 -0.9150591 0.20205912
 outer loop
  vertex 0.5513419 -0.012105152 0.28721622
  vertex 0.5287416 -0.031169116 0.2399235
  vertex 0.574456 -0.015704304 0.23098758
 endloop
endfacet
facet normal 0.3529316 -0.90412945 0.24080954
 outer loop
  vertex 0.574456 -0.015704304 0.23098758
  vertex 0.5287416 -0.031169116 0.2399235
  vertex 0.5472685 -0.03661649 0.19231799
 endloop
endfacet
facet normal 0.65939826 -0.7378617 0.14406316
 outer loop
  vertex 0.69012547 0.06591503 0.25094417
  vertex 0.65013814 0.03134813 0.25692752
  vertex 0.666095 0.03683558 0.21199612
 endloop
endfacet
facet normal -0.95000106 -0.24495605 0.19363493
 outer loop
  vertex 0.2687342 0.16045249 0.2611122
  vertex 0.27955937 0.11351074 0.25483894
  vertex 0.28312445 0.12210907 0.28320694
 endloop
endfacet
facet normal -0.9492415 -0.23722899 0.20654987
 outer loop
  vertex 0.28109145 0.14718117 0.30266
  vertex 0.2687342 0.16045249 0.2611122
  vertex 0.28312445 0.12210907 0.28320694
 endloop
endfacet
facet normal -0.9597342 -0.1499203 0.23755905
 outer loop
  vertex 0.28109145 0.14718117 0.30266
  vertex 0.2763428 0.18425049 0.3068695
  vertex 0.2687342 0.16045249 0.2611122
 endloop
endfacet
facet normal -0.92358536 -0.2789551 0.2630099
 outer loop
  vertex 0.28109145 0.14718117 0.30266
  vertex 0.28312445 0.12210907 0.28320694
  vertex 0.29778564 0.113533646 0.32559586
 endloop
endfacet
facet normal -0.8951961 -0.38007775 0.23273332
 outer loop
  vertex 0.29778564 0.113533646 0.32559586
  vertex 0.28312445 0.12210907 0.28320694
  vertex 0.30075935 0.08034006 0.28282547
 endloop
endfacet
facet normal -0.8106021 -0.48857972 0.322822
 outer loop
  vertex 0.29778564 0.113533646 0.32559586
  vertex 0.30075935 0.08034006 0.28282547
  vertex 0.33110037 0.06392352 0.33416557
 endloop
endfacet
facet normal -0.7945274 -0.46637586 0.38886982
 outer loop
  vertex 0.29778564 0.113533646 0.32559586
  vertex 0.33110037 0.06392352 0.33416557
  vertex 0.32941365 0.10148303 0.37576485
 endloop
endfacet
facet normal -0.38289312 0.36491328 0.8486643
 outer loop
  vertex 0.3916599 0.23844215 0.4217377
  vertex 0.36511695 0.2658221 0.3979893
  vertex 0.3555854 0.2252757 0.4111233
 endloop
endfacet
facet normal -0.2510409 0.4838217 0.8383883
 outer loop
  vertex 0.3916599 0.23844215 0.4217377
  vertex 0.41428137 0.28281474 0.40290454
  vertex 0.36511695 0.2658221 0.3979893
 endloop
endfacet
facet normal -0.30041316 0.30081034 0.9051326
 outer loop
  vertex 0.3916599 0.23844215 0.4217377
  vertex 0.3781256 0.19711944 0.4309788
  vertex 0.4215961 0.21052814 0.44095042
 endloop
endfacet
facet normal -0.37235844 0.31702393 0.8722643
 outer loop
  vertex 0.3916599 0.23844215 0.4217377
  vertex 0.3555854 0.2252757 0.4111233
  vertex 0.3781256 0.19711944 0.4309788
 endloop
endfacet
facet normal -0.18986991 0.41029963 0.89196616
 outer loop
  vertex 0.3916599 0.23844215 0.4217377
  vertex 0.4215961 0.21052814 0.44095042
  vertex 0.4317315 0.2447536 0.42736438
 endloop
endfacet
facet normal -0.1945622 0.46561646 0.8633347
 outer loop
  vertex 0.3916599 0.23844215 0.4217377
  vertex 0.4317315 0.2447536 0.42736438
  vertex 0.41428137 0.28281474 0.40290454
 endloop
endfacet
facet normal -0.5207858 0.17266016 0.83604467
 outer loop
  vertex 0.3555854 0.2252757 0.4111233
  vertex 0.34049362 0.1874854 0.40952685
  vertex 0.3781256 0.19711944 0.4309788
 endloop
endfacet
facet normal -0.6111911 0.2118667 0.76259947
 outer loop
  vertex 0.3555854 0.2252757 0.4111233
  vertex 0.318605 0.23258083 0.37945557
  vertex 0.34049362 0.1874854 0.40952685
 endloop
endfacet
facet normal -0.5604559 0.37151366 0.74018025
 outer loop
  vertex 0.3555854 0.2252757 0.4111233
  vertex 0.36511695 0.2658221 0.3979893
  vertex 0.318605 0.23258083 0.37945557
 endloop
endfacet
facet normal -0.4149552 0.046361692 0.9086599
 outer loop
  vertex 0.3781256 0.19711944 0.4309788
  vertex 0.36389157 0.15450354 0.42665294
  vertex 0.4164035 0.15632318 0.45054057
 endloop
endfacet
facet normal -0.2755515 0.19300778 0.9417109
 outer loop
  vertex 0.3781256 0.19711944 0.4309788
  vertex 0.4164035 0.15632318 0.45054057
  vertex 0.4215961 0.21052814 0.44095042
 endloop
endfacet
facet normal -0.5095138 0.08324713 0.85642606
 outer loop
  vertex 0.3781256 0.19711944 0.4309788
  vertex 0.34049362 0.1874854 0.40952685
  vertex 0.36389157 0.15450354 0.42665294
 endloop
endfacet
facet normal -0.4833321 0.8527011 0.19821939
 outer loop
  vertex 0.359173 0.391051 0.2844067
  vertex 0.38704187 0.415343 0.24786188
  vertex 0.34579748 0.39595288 0.23070528
 endloop
endfacet
facet normal -0.5147747 0.6797885 0.5223932
 outer loop
  vertex 0.359173 0.391051 0.2844067
  vertex 0.31914243 0.34860867 0.30018997
  vertex 0.36473924 0.3565547 0.33478168
 endloop
endfacet
facet normal -0.44123557 0.7169506 0.53971577
 outer loop
  vertex 0.359173 0.391051 0.2844067
  vertex 0.36473924 0.3565547 0.33478168
  vertex 0.38745397 0.38634557 0.31377795
 endloop
endfacet
facet normal -0.33490047 0.88219553 0.3310179
 outer loop
  vertex 0.359173 0.391051 0.2844067
  vertex 0.41162473 0.40936542 0.2886639
  vertex 0.38704187 0.415343 0.24786188
 endloop
endfacet
facet normal -0.32690397 0.83208424 0.4480732
 outer loop
  vertex 0.359173 0.391051 0.2844067
  vertex 0.38745397 0.38634557 0.31377795
  vertex 0.41162473 0.40936542 0.2886639
 endloop
endfacet
facet normal -0.55385035 0.5807357 0.59665394
 outer loop
  vertex 0.31914243 0.34860867 0.30018997
  vertex 0.32509255 0.3128783 0.34049034
  vertex 0.36473924 0.3565547 0.33478168
 endloop
endfacet
facet normal -0.51863253 0.7645768 0.3826782
 outer loop
  vertex 0.34579748 0.39595288 0.23070528
  vertex 0.38704187 0.415343 0.24786188
  vertex 0.36685342 0.42372006 0.20376398
 endloop
endfacet
facet normal -0.6993833 0.681432 0.2156697
 outer loop
  vertex 0.34579748 0.39595288 0.23070528
  vertex 0.33209795 0.3961951 0.18551446
  vertex 0.31867522 0.37487477 0.2093506
 endloop
endfacet
facet normal -0.67197376 0.7109059 0.20751855
 outer loop
  vertex 0.34579748 0.39595288 0.23070528
  vertex 0.36685342 0.42372006 0.20376398
  vertex 0.33209795 0.3961951 0.18551446
 endloop
endfacet
facet normal -0.2478018 0.6562447 0.712697
 outer loop
  vertex 0.36473924 0.3565547 0.33478168
  vertex 0.4052038 0.34431338 0.3601227
  vertex 0.41850847 0.38105083 0.3309212
 endloop
endfacet
facet normal -0.26130036 0.6813143 0.68376374
 outer loop
  vertex 0.36473924 0.3565547 0.33478168
  vertex 0.41850847 0.38105083 0.3309212
  vertex 0.38745397 0.38634557 0.31377795
 endloop
endfacet
facet normal -0.29681328 0.58358866 0.75586116
 outer loop
  vertex 0.36473924 0.3565547 0.33478168
  vertex 0.37053418 0.3091876 0.37362865
  vertex 0.4052038 0.34431338 0.3601227
 endloop
endfacet
facet normal -0.47409576 0.5229392 0.7083556
 outer loop
  vertex 0.36473924 0.3565547 0.33478168
  vertex 0.32509255 0.3128783 0.34049034
  vertex 0.37053418 0.3091876 0.37362865
 endloop
endfacet
facet normal -0.1762072 0.80423754 0.5675852
 outer loop
  vertex 0.41850847 0.38105083 0.3309212
  vertex 0.41162473 0.40936542 0.2886639
  vertex 0.38745397 0.38634557 0.31377795
 endloop
endfacet
facet normal -0.13802809 0.6464395 0.75037605
 outer loop
  vertex 0.41850847 0.38105083 0.3309212
  vertex 0.4052038 0.34431338 0.3601227
  vertex 0.45390162 0.3494575 0.36464885
 endloop
endfacet
facet normal -0.101416335 0.6707438 0.7347228
 outer loop
  vertex 0.41850847 0.38105083 0.3309212
  vertex 0.45390162 0.3494575 0.36464885
  vertex 0.46341938 0.38448596 0.3339844
 endloop
endfacet
facet normal -0.10194439 0.74770784 0.6561557
 outer loop
  vertex 0.41850847 0.38105083 0.3309212
  vertex 0.46341938 0.38448596 0.3339844
  vertex 0.44854885 0.40397525 0.30946544
 endloop
endfacet
facet normal -0.20334147 0.79775476 0.5676616
 outer loop
  vertex 0.41850847 0.38105083 0.3309212
  vertex 0.44854885 0.40397525 0.30946544
  vertex 0.41162473 0.40936542 0.2886639
 endloop
endfacet
facet normal 0.6289041 0.44244874 0.63931125
 outer loop
  vertex 0.6526953 0.388852 0.25265124
  vertex 0.6961553 0.38189405 0.2147141
  vertex 0.6690372 0.40906614 0.22258572
 endloop
endfacet
facet normal 0.68622994 0.56948376 0.45252267
 outer loop
  vertex 0.6526953 0.388852 0.25265124
  vertex 0.65534675 0.3443307 0.30465892
  vertex 0.689245 0.34396833 0.25370982
 endloop
endfacet
facet normal 0.6101982 0.51117224 0.6052777
 outer loop
  vertex 0.6526953 0.388852 0.25265124
  vertex 0.689245 0.34396833 0.25370982
  vertex 0.6961553 0.38189405 0.2147141
 endloop
endfacet
facet normal 0.60498613 0.46849316 0.64382136
 outer loop
  vertex 0.6526953 0.388852 0.25265124
  vertex 0.6690372 0.40906614 0.22258572
  vertex 0.64610374 0.43553054 0.22487836
 endloop
endfacet
facet normal 0.6385565 0.5137342 0.5729946
 outer loop
  vertex 0.65534675 0.3443307 0.30465892
  vertex 0.63928616 0.3129815 0.35066417
  vertex 0.6711308 0.30149356 0.32547572
 endloop
endfacet
facet normal 0.71961594 0.50631255 0.47518483
 outer loop
  vertex 0.65534675 0.3443307 0.30465892
  vertex 0.68871164 0.31043905 0.29024318
  vertex 0.689245 0.34396833 0.25370982
 endloop
endfacet
facet normal 0.7174706 0.5000371 0.48497304
 outer loop
  vertex 0.65534675 0.3443307 0.30465892
  vertex 0.6711308 0.30149356 0.32547572
  vertex 0.68871164 0.31043905 0.29024318
 endloop
endfacet
facet normal 0.52367574 0.6077743 0.5969707
 outer loop
  vertex 0.65534675 0.3443307 0.30465892
  vertex 0.60366297 0.3536328 0.3405266
  vertex 0.63928616 0.3129815 0.35066417
 endloop
endfacet
facet normal 0.7706215 0.38318282 0.50922835
 outer loop
  vertex 0.6961553 0.38189405 0.2147141
  vertex 0.689245 0.34396833 0.25370982
  vertex 0.7219696 0.3275327 0.21655469
 endloop
endfacet
facet normal 0.77425873 0.35075954 0.52677435
 outer loop
  vertex 0.689245 0.34396833 0.25370982
  vertex 0.71160173 0.29699606 0.25212672
  vertex 0.7219696 0.3275327 0.21655469
 endloop
endfacet
facet normal 0.8438179 0.3891677 0.36948586
 outer loop
  vertex 0.689245 0.34396833 0.25370982
  vertex 0.68871164 0.31043905 0.29024318
  vertex 0.71160173 0.29699606 0.25212672
 endloop
endfacet
facet normal 0.11095876 0.7901398 0.6027995
 outer loop
  vertex 0.5502134 0.4015873 0.30523494
  vertex 0.49524266 0.409787 0.3046055
  vertex 0.5264291 0.38466913 0.33178905
 endloop
endfacet
facet normal 0.15721336 0.76302737 0.62695545
 outer loop
  vertex 0.5502134 0.4015873 0.30523494
  vertex 0.5264291 0.38466913 0.33178905
  vertex 0.56384164 0.37470704 0.3345318
 endloop
endfacet
facet normal -0.030361818 0.7734136 0.6331742
 outer loop
  vertex 0.49524266 0.409787 0.3046055
  vertex 0.44854885 0.40397525 0.30946544
  vertex 0.46341938 0.38448596 0.3339844
 endloop
endfacet
facet normal 0.0015021671 0.75693023 0.6534939
 outer loop
  vertex 0.49524266 0.409787 0.3046055
  vertex 0.46341938 0.38448596 0.3339844
  vertex 0.49537688 0.37426072 0.34575465
 endloop
endfacet
facet normal 0.04010487 0.75638443 0.6528967
 outer loop
  vertex 0.49524266 0.409787 0.3046055
  vertex 0.49537688 0.37426072 0.34575465
  vertex 0.5264291 0.38466913 0.33178905
 endloop
endfacet
facet normal 0.14550631 0.73023134 0.6675254
 outer loop
  vertex 0.5264291 0.38466913 0.33178905
  vertex 0.52922773 0.36032754 0.3578072
  vertex 0.56384164 0.37470704 0.3345318
 endloop
endfacet
facet normal 0.059761394 0.7321368 0.67853105
 outer loop
  vertex 0.5264291 0.38466913 0.33178905
  vertex 0.49537688 0.37426072 0.34575465
  vertex 0.52922773 0.36032754 0.3578072
 endloop
endfacet
facet normal -0.89426816 -0.25058025 0.37080172
 outer loop
  vertex 0.30695128 0.13941446 0.3651905
  vertex 0.28960845 0.16115251 0.33805466
  vertex 0.29778564 0.113533646 0.32559586
 endloop
endfacet
facet normal -0.8239554 -0.36774945 0.4311122
 outer loop
  vertex 0.30695128 0.13941446 0.3651905
  vertex 0.29778564 0.113533646 0.32559586
  vertex 0.32941365 0.10148303 0.37576485
 endloop
endfacet
facet normal -0.75881094 -0.28626382 0.58502907
 outer loop
  vertex 0.30695128 0.13941446 0.3651905
  vertex 0.32941365 0.10148303 0.37576485
  vertex 0.32910487 0.144509 0.39641762
 endloop
endfacet
facet normal -0.87199914 -0.09666507 0.47986808
 outer loop
  vertex 0.30695128 0.13941446 0.3651905
  vertex 0.30920774 0.17917505 0.37730026
  vertex 0.28960845 0.16115251 0.33805466
 endloop
endfacet
facet normal -0.7978432 -0.13375795 0.5878393
 outer loop
  vertex 0.30695128 0.13941446 0.3651905
  vertex 0.32910487 0.144509 0.39641762
  vertex 0.30920774 0.17917505 0.37730026
 endloop
endfacet
facet normal -0.8807836 -0.063865215 0.4691925
 outer loop
  vertex 0.30920774 0.17917505 0.37730026
  vertex 0.289748 0.2051188 0.34430122
  vertex 0.28960845 0.16115251 0.33805466
 endloop
endfacet
facet normal -0.7266933 0.100442916 0.6795793
 outer loop
  vertex 0.30920774 0.17917505 0.37730026
  vertex 0.34049362 0.1874854 0.40952685
  vertex 0.318605 0.23258083 0.37945557
 endloop
endfacet
facet normal -0.811187 0.11963513 0.5724186
 outer loop
  vertex 0.30920774 0.17917505 0.37730026
  vertex 0.318605 0.23258083 0.37945557
  vertex 0.289748 0.2051188 0.34430122
 endloop
endfacet
facet normal -0.71417546 -0.024129793 0.6995506
 outer loop
  vertex 0.30920774 0.17917505 0.37730026
  vertex 0.32910487 0.144509 0.39641762
  vertex 0.34049362 0.1874854 0.40952685
 endloop
endfacet
facet normal -0.9451568 -0.15379688 0.28814077
 outer loop
  vertex 0.28960845 0.16115251 0.33805466
  vertex 0.2763428 0.18425049 0.3068695
  vertex 0.28109145 0.14718117 0.30266
 endloop
endfacet
facet normal -0.9179411 -0.24023145 0.31571022
 outer loop
  vertex 0.28960845 0.16115251 0.33805466
  vertex 0.28109145 0.14718117 0.30266
  vertex 0.29778564 0.113533646 0.32559586
 endloop
endfacet
facet normal -0.931509 -0.04826186 0.3605021
 outer loop
  vertex 0.28960845 0.16115251 0.33805466
  vertex 0.289748 0.2051188 0.34430122
  vertex 0.2763428 0.18425049 0.3068695
 endloop
endfacet
facet normal 0.01281978 0.45154613 0.8921557
 outer loop
  vertex 0.51359856 0.26016885 0.42073253
  vertex 0.50116277 0.308461 0.39646915
  vertex 0.4661318 0.27638698 0.41320613
 endloop
endfacet
facet normal 0.061039686 0.4606179 0.88549715
 outer loop
  vertex 0.51359856 0.26016885 0.42073253
  vertex 0.54296184 0.29063112 0.40286258
  vertex 0.50116277 0.308461 0.39646915
 endloop
endfacet
facet normal 0.1891291 0.36234662 0.91265285
 outer loop
  vertex 0.51359856 0.26016885 0.42073253
  vertex 0.52946204 0.21331674 0.43604663
  vertex 0.56044376 0.24853022 0.41564563
 endloop
endfacet
facet normal 0.015515745 0.45790887 0.8888637
 outer loop
  vertex 0.51359856 0.26016885 0.42073253
  vertex 0.4661318 0.27638698 0.41320613
  vertex 0.4759157 0.22675398 0.43860438
 endloop
endfacet
facet normal 0.18784176 0.35595068 0.9154314
 outer loop
  vertex 0.51359856 0.26016885 0.42073253
  vertex 0.56044376 0.24853022 0.41564563
  vertex 0.54296184 0.29063112 0.40286258
 endloop
endfacet
facet normal 0.13166091 0.34797463 0.9282129
 outer loop
  vertex 0.51359856 0.26016885 0.42073253
  vertex 0.4759157 0.22675398 0.43860438
  vertex 0.52946204 0.21331674 0.43604663
 endloop
endfacet
facet normal 0.36897913 0.25207597 0.8946016
 outer loop
  vertex 0.56044376 0.24853022 0.41564563
  vertex 0.57918483 0.19966015 0.4216862
  vertex 0.60105217 0.24043928 0.40117648
 endloop
endfacet
facet normal 0.3294932 0.23925 0.913342
 outer loop
  vertex 0.56044376 0.24853022 0.41564563
  vertex 0.52946204 0.21331674 0.43604663
  vertex 0.57918483 0.19966015 0.4216862
 endloop
endfacet
facet normal 0.24712792 0.3740267 0.8938858
 outer loop
  vertex 0.56044376 0.24853022 0.41564563
  vertex 0.58421266 0.2754372 0.39781573
  vertex 0.54296184 0.29063112 0.40286258
 endloop
endfacet
facet normal 0.36994255 0.26354998 0.89088935
 outer loop
  vertex 0.56044376 0.24853022 0.41564563
  vertex 0.60105217 0.24043928 0.40117648
  vertex 0.58421266 0.2754372 0.39781573
 endloop
endfacet
facet normal 0.07484334 0.4874073 0.8699613
 outer loop
  vertex 0.54296184 0.29063112 0.40286258
  vertex 0.53843915 0.33060533 0.3808556
  vertex 0.50116277 0.308461 0.39646915
 endloop
endfacet
facet normal 0.19299927 0.4898748 0.85016114
 outer loop
  vertex 0.54296184 0.29063112 0.40286258
  vertex 0.587095 0.3157624 0.3783627
  vertex 0.53843915 0.33060533 0.3808556
 endloop
endfacet
facet normal 0.25654593 0.4050118 0.87758166
 outer loop
  vertex 0.54296184 0.29063112 0.40286258
  vertex 0.58421266 0.2754372 0.39781573
  vertex 0.587095 0.3157624 0.3783627
 endloop
endfacet
facet normal -0.6274821 -0.45269784 0.6335068
 outer loop
  vertex 0.36643636 0.085617736 0.40109828
  vertex 0.3504622 0.11508626 0.40633395
  vertex 0.32941365 0.10148303 0.37576485
 endloop
endfacet
facet normal -0.6176805 -0.56043094 0.5517137
 outer loop
  vertex 0.36643636 0.085617736 0.40109828
  vertex 0.32941365 0.10148303 0.37576485
  vertex 0.36627105 0.057133388 0.3719788
 endloop
endfacet
facet normal -0.53238845 -0.41925064 0.7353853
 outer loop
  vertex 0.36643636 0.085617736 0.40109828
  vertex 0.38757932 0.11219475 0.43155673
  vertex 0.3504622 0.11508626 0.40633395
 endloop
endfacet
facet normal -0.64608854 -0.5793606 0.49690124
 outer loop
  vertex 0.32941365 0.10148303 0.37576485
  vertex 0.33110037 0.06392352 0.33416557
  vertex 0.36627105 0.057133388 0.3719788
 endloop
endfacet
facet normal -0.90919983 0.40519542 0.09577269
 outer loop
  vertex 0.2729038 0.304505 0.20283128
  vertex 0.27164674 0.29197943 0.24389078
  vertex 0.29018223 0.3406321 0.21401407
 endloop
endfacet
facet normal -0.91293675 0.3993695 0.08396717
 outer loop
  vertex 0.29220533 0.33526102 0.26155663
  vertex 0.29018223 0.3406321 0.21401407
  vertex 0.27164674 0.29197943 0.24389078
 endloop
endfacet
facet normal -0.7395131 0.59802413 0.30901068
 outer loop
  vertex 0.29220533 0.33526102 0.26155663
  vertex 0.31914243 0.34860867 0.30018997
  vertex 0.31678623 0.37028188 0.25260735
 endloop
endfacet
facet normal -0.8020727 0.5886863 0.10063749
 outer loop
  vertex 0.29220533 0.33526102 0.26155663
  vertex 0.31678623 0.37028188 0.25260735
  vertex 0.29018223 0.3406321 0.21401407
 endloop
endfacet
facet normal -0.55334955 0.8056849 0.21136713
 outer loop
  vertex 0.31678623 0.37028188 0.25260735
  vertex 0.359173 0.391051 0.2844067
  vertex 0.34579748 0.39595288 0.23070528
 endloop
endfacet
facet normal -0.6116512 0.70809853 0.3528165
 outer loop
  vertex 0.31678623 0.37028188 0.25260735
  vertex 0.31914243 0.34860867 0.30018997
  vertex 0.359173 0.391051 0.2844067
 endloop
endfacet
facet normal -0.76589733 0.64202464 0.03472243
 outer loop
  vertex 0.31678623 0.37028188 0.25260735
  vertex 0.31867522 0.37487477 0.2093506
  vertex 0.29018223 0.3406321 0.21401407
 endloop
endfacet
facet normal -0.6387228 0.76756734 0.05360585
 outer loop
  vertex 0.31678623 0.37028188 0.25260735
  vertex 0.34579748 0.39595288 0.23070528
  vertex 0.31867522 0.37487477 0.2093506
 endloop
endfacet
facet normal -0.7565075 0.6445539 0.11066459
 outer loop
  vertex 0.29018223 0.3406321 0.21401407
  vertex 0.31867522 0.37487477 0.2093506
  vertex 0.30255362 0.36324948 0.16685297
 endloop
endfacet
facet normal -0.24489819 -0.91956437 0.30728862
 outer loop
  vertex 0.42034027 -0.00016714633 0.31857112
  vertex 0.40775093 -0.013238214 0.26942256
  vertex 0.4518573 -0.022044405 0.27822116
 endloop
endfacet
facet normal -0.17252044 -0.91609734 0.3619425
 outer loop
  vertex 0.42034027 -0.00016714633 0.31857112
  vertex 0.4518573 -0.022044405 0.27822116
  vertex 0.47450313 -0.007689692 0.32534793
 endloop
endfacet
facet normal -0.17475148 -0.90145814 0.3960241
 outer loop
  vertex 0.42034027 -0.00016714633 0.31857112
  vertex 0.47450313 -0.007689692 0.32534793
  vertex 0.45493728 0.013170965 0.3641987
 endloop
endfacet
facet normal -0.25084957 -0.86124206 0.44196916
 outer loop
  vertex 0.42034027 -0.00016714633 0.31857112
  vertex 0.45493728 0.013170965 0.3641987
  vertex 0.4093278 0.0275409 0.36631396
 endloop
endfacet
endsolid 
